<?xml version="1.0" encoding="utf-8"?>
<!-- Generator: Adobe Illustrator 15.0.0, SVG Export Plug-In . SVG Version: 6.00 Build 0)  -->
<!DOCTYPE svg PUBLIC "-//W3C//DTD SVG 1.1//EN" "http://www.w3.org/Graphics/SVG/1.1/DTD/svg11.dtd">
<svg version="1.1" id="Layer_1" xmlns="http://www.w3.org/2000/svg" xmlns:xlink="http://www.w3.org/1999/xlink" x="0px" y="0px"
	 width="320px" height="95px" viewBox="0 0 320 95" enable-background="new 0 0 320 95" xml:space="preserve">
<path fill="none" d="M117.037,57.33c-2.254,1.955-5.183,3.152-8.401,3.152c-7.106,0-12.868-5.762-12.868-12.867
	c0-7.107,5.762-12.868,12.868-12.868c2.648,0,5.1,0.809,7.144,2.182l9.318-11.904c-4.618-3.371-10.306-5.369-16.462-5.369
	c-15.44,0-27.958,12.517-27.958,27.958c0,15.44,12.518,27.956,27.958,27.956c6.889,0,13.195-2.49,18.069-6.623L117.037,57.33z"/>
<polygon fill="#FFFFFF" points="61.648,20.045 74.076,20.045 53.458,69.961 41.037,69.961 "/>
<rect x="61.919" y="20.045" fill="#FFE000" width="12.157" height="54.844"/>
<rect x="20.364" y="20.045" fill="#FFFFFF" width="12.158" height="54.844"/>
<g>
	<polygon fill="#FFE000" points="33.063,20.045 20.364,20.045 41.037,69.961 53.458,69.961 	"/>
</g>
<g>
	<g>
		<path fill="#FFFFFF" d="M200.202,19.38l2.83,5.687l2.803-5.687h1.48v8.396h-1.054v-6.901l-2.884,5.846h-0.706l-2.924-5.94v6.995
			h-1.054V19.38H200.202z"/>
		<path fill="#FFFFFF" d="M212.216,27.069c0.88,0,1.384-0.386,1.509-1.161h1.081c-0.097,0.641-0.379,1.136-0.847,1.488
			c-0.466,0.352-1.047,0.528-1.742,0.528c-0.854,0-1.548-0.304-2.083-0.914c-0.533-0.61-0.8-1.422-0.8-2.437
			c0-1.014,0.269-1.823,0.807-2.429c0.539-0.605,1.255-0.907,2.149-0.907c0.894,0,1.562,0.347,2.002,1.04
			c0.439,0.695,0.593,1.541,0.46,2.537h-4.365c0,0.659,0.161,1.199,0.48,1.622C211.188,26.857,211.637,27.069,212.216,27.069z
			 M212.99,22.236c-0.205-0.106-0.456-0.16-0.747-0.16c-0.545,0-0.975,0.185-1.289,0.555c-0.316,0.369-0.501,0.83-0.555,1.381h3.403
			C213.804,23.123,213.532,22.53,212.99,22.236z"/>
		<path fill="#FFFFFF" d="M221.067,22.344v-3.657h1.04v9.09h-0.854l-0.134-1.068c-0.203,0.4-0.475,0.702-0.813,0.909
			c-0.339,0.205-0.706,0.306-1.107,0.306c-0.81,0-1.488-0.312-2.037-0.935c-0.547-0.622-0.82-1.435-0.82-2.436
			c0-1.001,0.269-1.804,0.807-2.41c0.541-0.605,1.221-0.907,2.044-0.907C220.014,21.236,220.638,21.604,221.067,22.344z
			 M219.251,22.17c-0.517,0-0.95,0.217-1.302,0.654c-0.352,0.436-0.528,1.018-0.528,1.748c0,0.731,0.179,1.315,0.535,1.756
			c0.355,0.439,0.783,0.661,1.28,0.661c0.498,0,0.925-0.167,1.276-0.501c0.352-0.333,0.535-0.781,0.555-1.341v-1.041
			c0-0.596-0.174-1.068-0.522-1.416C220.199,22.344,219.768,22.17,219.251,22.17z"/>
		<path fill="#FFFFFF" d="M225.405,19.888c-0.214,0-0.38-0.06-0.501-0.181c-0.121-0.12-0.18-0.28-0.18-0.481
			c0-0.2,0.059-0.36,0.18-0.48c0.121-0.12,0.287-0.181,0.501-0.181s0.384,0.061,0.513,0.181c0.129,0.121,0.194,0.28,0.194,0.48
			c0,0.201-0.065,0.362-0.194,0.481C225.789,19.826,225.618,19.888,225.405,19.888z M224.883,21.382h1.056v6.394h-1.056V21.382z"/>
		<path fill="#FFFFFF" d="M232.146,27.589c-0.766,0.356-1.465,0.432-2.097,0.227c-0.454-0.142-0.775-0.44-0.961-0.895
			c-0.098-0.223-0.146-0.49-0.146-0.801v-3.925h-1.028v-0.801h1.028v-1.775h1.04v1.775h2.002v0.801h-2.002v3.911
			c0,0.65,0.303,0.975,0.908,0.975c0.329,0,0.698-0.08,1.107-0.241L232.146,27.589z"/>
		<path fill="#FFFFFF" d="M236.03,27.069c0.881,0,1.384-0.386,1.509-1.161h1.082c-0.098,0.641-0.38,1.136-0.848,1.488
			c-0.467,0.352-1.048,0.528-1.741,0.528c-0.854,0-1.55-0.304-2.083-0.914c-0.534-0.61-0.801-1.422-0.801-2.437
			c0-1.014,0.27-1.823,0.808-2.429c0.539-0.605,1.254-0.907,2.149-0.907c0.893,0,1.562,0.347,2.001,1.04
			c0.44,0.695,0.594,1.541,0.46,2.537h-4.364c0,0.659,0.159,1.199,0.48,1.622C235.002,26.857,235.452,27.069,236.03,27.069z
			 M236.805,22.236c-0.204-0.106-0.455-0.16-0.747-0.16c-0.545,0-0.974,0.185-1.288,0.555c-0.316,0.369-0.502,0.83-0.555,1.381
			h3.402C237.617,23.123,237.348,22.53,236.805,22.236z"/>
		<path fill="#FFFFFF" d="M243.305,22.291c-1.005,0-1.524,0.792-1.562,2.375v3.111h-1.053v-6.394h1.053v1.229
			c0.321-0.89,0.887-1.335,1.695-1.335c0.26,0,0.504,0.04,0.735,0.12l-0.053,1.027C243.854,22.334,243.582,22.291,243.305,22.291z"
			/>
		<path fill="#FFFFFF" d="M248.392,22.291c-1.006,0-1.524,0.792-1.563,2.375v3.111h-1.053v-6.394h1.053v1.229
			c0.321-0.89,0.888-1.335,1.696-1.335c0.259,0,0.503,0.04,0.735,0.12l-0.054,1.027C248.939,22.334,248.667,22.291,248.392,22.291z"
			/>
		<path fill="#FFFFFF" d="M254.825,23.639c0-0.579-0.121-0.992-0.361-1.242c-0.239-0.249-0.589-0.374-1.047-0.374
			c-0.459,0-0.828,0.091-1.107,0.274c-0.28,0.183-0.42,0.47-0.42,0.861h-1.162c0-0.979,0.524-1.584,1.574-1.815
			c0.319-0.072,0.667-0.106,1.041-0.106c0.792,0,1.41,0.2,1.855,0.601c0.445,0.401,0.668,1.01,0.668,1.829v4.112h-0.908
			l-0.106-1.068c-0.393,0.811-1.1,1.215-2.123,1.215c-0.686,0-1.234-0.192-1.648-0.573c-0.415-0.382-0.62-0.859-0.62-1.429
			c0-0.569,0.227-1.014,0.687-1.334s1.029-0.48,1.716-0.48c0.685,0,1.339,0.116,1.961,0.347v-0.817H254.825z M254.825,25.12
			c-0.633-0.178-1.183-0.268-1.655-0.268c-0.472,0-0.854,0.084-1.147,0.253s-0.441,0.436-0.441,0.801
			c0,0.801,0.455,1.201,1.361,1.201c0.516,0,0.959-0.185,1.328-0.554C254.64,26.186,254.825,25.707,254.825,25.12z"/>
		<path fill="#FFFFFF" d="M259.364,22.624c0.418-0.925,1.135-1.387,2.148-1.387c0.757,0,1.346,0.249,1.769,0.748
			c0.423,0.499,0.634,1.179,0.634,2.042v3.75h-1.041v-3.75c0-0.615-0.145-1.078-0.434-1.389c-0.289-0.312-0.699-0.467-1.233-0.467
			s-0.966,0.217-1.295,0.654c-0.329,0.436-0.503,1.04-0.521,1.815v3.136h-1.054v-6.381h0.906L259.364,22.624z"/>
		<path fill="#FFFFFF" d="M268.603,27.069c0.881,0,1.383-0.386,1.51-1.161h1.08c-0.097,0.641-0.38,1.136-0.848,1.488
			c-0.466,0.352-1.046,0.528-1.741,0.528c-0.854,0-1.549-0.304-2.083-0.914c-0.533-0.61-0.8-1.422-0.8-2.437
			c0-1.014,0.269-1.823,0.807-2.429c0.54-0.605,1.254-0.907,2.149-0.907c0.893,0,1.562,0.347,2.003,1.04
			c0.438,0.695,0.592,1.541,0.459,2.537h-4.365c0,0.659,0.16,1.199,0.481,1.622C267.573,26.857,268.023,27.069,268.603,27.069z
			 M269.377,22.236c-0.205-0.106-0.455-0.16-0.748-0.16c-0.544,0-0.974,0.185-1.288,0.555c-0.316,0.369-0.502,0.83-0.554,1.381
			h3.401C270.19,23.123,269.918,22.53,269.377,22.236z"/>
		<path fill="#FFFFFF" d="M277.226,23.639c0-0.579-0.12-0.992-0.362-1.242c-0.239-0.249-0.587-0.374-1.046-0.374
			s-0.827,0.091-1.107,0.274s-0.421,0.47-0.421,0.861h-1.162c0-0.979,0.526-1.584,1.576-1.815c0.318-0.072,0.666-0.106,1.039-0.106
			c0.794,0,1.411,0.2,1.857,0.601c0.445,0.401,0.668,1.01,0.668,1.829v4.112h-0.909l-0.106-1.068
			c-0.393,0.811-1.1,1.215-2.122,1.215c-0.688,0-1.235-0.192-1.65-0.573c-0.413-0.382-0.619-0.859-0.619-1.429
			c0-0.569,0.228-1.014,0.688-1.334c0.459-0.32,1.029-0.48,1.716-0.48c0.685,0,1.338,0.116,1.961,0.347L277.226,23.639
			L277.226,23.639z M277.226,25.12c-0.632-0.178-1.183-0.268-1.655-0.268c-0.472,0-0.854,0.084-1.147,0.253
			s-0.441,0.436-0.441,0.801c0,0.801,0.455,1.201,1.362,1.201c0.514,0,0.958-0.185,1.328-0.554
			C277.041,26.186,277.226,25.707,277.226,25.12z"/>
		<path fill="#FFFFFF" d="M281.766,22.624c0.418-0.925,1.135-1.387,2.148-1.387c0.757,0,1.345,0.249,1.768,0.748
			c0.422,0.499,0.635,1.179,0.635,2.042v3.75h-1.041v-3.75c0-0.615-0.145-1.078-0.434-1.389c-0.29-0.312-0.7-0.467-1.233-0.467
			c-0.535,0-0.968,0.217-1.295,0.654c-0.329,0.436-0.504,1.04-0.521,1.815v3.136h-1.054v-6.381h0.906L281.766,22.624z"/>
	</g>
	<g>
		<path fill="#FFFFFF" d="M201.604,35.252c0.897,0,1.621,0.225,2.169,0.675s0.923,1.035,1.128,1.755l-1.134,0.227
			c-0.178-0.525-0.456-0.94-0.834-1.248c-0.38-0.307-0.82-0.46-1.328-0.46c-0.702,0-1.286,0.294-1.748,0.88
			c-0.464,0.587-0.696,1.404-0.696,2.45c0,1.046,0.208,1.884,0.621,2.516c0.414,0.632,1.021,0.948,1.822,0.948
			c0.667,0,1.193-0.176,1.582-0.528c0.387-0.351,0.579-0.815,0.579-1.394h1.135c0,0.88-0.3,1.58-0.9,2.096s-1.424,0.774-2.47,0.774
			c-1.047,0-1.892-0.401-2.536-1.202c-0.645-0.8-0.968-1.874-0.968-3.217c0-1.343,0.335-2.392,1.001-3.144
			C199.694,35.628,200.554,35.252,201.604,35.252z"/>
		<path fill="#FFFFFF" d="M207.465,35.906c-0.215,0-0.382-0.06-0.502-0.18c-0.12-0.121-0.181-0.28-0.181-0.481
			c0-0.2,0.061-0.361,0.181-0.48c0.12-0.121,0.287-0.18,0.502-0.18c0.213,0,0.384,0.06,0.512,0.18c0.128,0.12,0.194,0.28,0.194,0.48
			c0,0.2-0.066,0.361-0.194,0.481C207.849,35.846,207.677,35.906,207.465,35.906z M206.942,37.401h1.054v6.395h-1.054V37.401z"/>
		<path fill="#FFFFFF" d="M214.205,43.609c-0.765,0.356-1.465,0.432-2.098,0.227c-0.453-0.143-0.773-0.441-0.961-0.895
			C211.05,42.719,211,42.452,211,42.14v-3.925h-1.026v-0.801H211v-1.776h1.042v1.776h2.001v0.801h-2.001v3.911
			c0,0.65,0.303,0.975,0.907,0.975c0.329,0,0.699-0.081,1.107-0.241L214.205,43.609z"/>
		<path fill="#FFFFFF" d="M216.475,35.906c-0.214,0-0.38-0.06-0.501-0.18c-0.121-0.121-0.181-0.28-0.181-0.481
			c0-0.2,0.06-0.361,0.181-0.48c0.121-0.121,0.287-0.18,0.501-0.18c0.215,0,0.384,0.06,0.513,0.18c0.129,0.12,0.194,0.28,0.194,0.48
			c0,0.2-0.065,0.361-0.194,0.481C216.858,35.846,216.687,35.906,216.475,35.906z M215.954,37.401h1.054v6.395h-1.054V37.401z"/>
		<path fill="#FFFFFF" d="M222.082,43.088c0.881,0,1.383-0.387,1.509-1.161h1.08c-0.097,0.641-0.378,1.136-0.846,1.488
			c-0.467,0.352-1.048,0.528-1.743,0.528c-0.854,0-1.548-0.305-2.082-0.914c-0.534-0.61-0.8-1.422-0.8-2.436
			c0-1.014,0.269-1.824,0.807-2.43c0.538-0.605,1.255-0.907,2.148-0.907c0.895,0,1.563,0.347,2.002,1.041
			c0.44,0.694,0.595,1.54,0.46,2.537h-4.363c0,0.658,0.159,1.198,0.479,1.621C221.053,42.876,221.504,43.088,222.082,43.088z
			 M222.855,38.255c-0.206-0.107-0.456-0.16-0.748-0.16c-0.545,0-0.974,0.186-1.289,0.555c-0.315,0.37-0.5,0.83-0.554,1.382h3.402
			C223.669,39.142,223.397,38.549,222.855,38.255z"/>
		<path fill="#FFFFFF" d="M227.094,37.722c0.45-0.311,1.058-0.467,1.821-0.467c0.767,0,1.365,0.16,1.797,0.48
			c0.432,0.321,0.655,0.726,0.674,1.215h-1.028c-0.079-0.579-0.569-0.868-1.47-0.868c-0.436,0-0.771,0.098-1.007,0.294
			c-0.236,0.195-0.354,0.407-0.354,0.634c0,0.227,0.088,0.417,0.266,0.574c0.178,0.156,0.462,0.292,0.854,0.407l1.281,0.427
			c0.543,0.169,0.96,0.386,1.249,0.648c0.288,0.263,0.433,0.624,0.433,1.082c0,0.458-0.235,0.871-0.707,1.241
			c-0.471,0.369-1.131,0.554-1.976,0.554s-1.505-0.189-1.976-0.567c-0.471-0.377-0.722-0.866-0.747-1.461h1.014
			c0.018,0.4,0.181,0.7,0.488,0.901c0.308,0.2,0.691,0.299,1.153,0.299c0.463,0,0.845-0.097,1.148-0.294
			c0.303-0.195,0.456-0.429,0.456-0.7c0-0.271-0.091-0.478-0.269-0.62c-0.177-0.142-0.467-0.268-0.866-0.374l-1.242-0.413
			c-1.112-0.329-1.667-0.908-1.667-1.736C226.42,38.452,226.644,38.033,227.094,37.722z"/>
		<path fill="#FFFFFF" d="M240.902,39.658c0-0.579-0.12-0.992-0.36-1.242c-0.239-0.249-0.59-0.374-1.049-0.374
			c-0.457,0-0.827,0.091-1.107,0.274c-0.279,0.183-0.419,0.47-0.419,0.861h-1.162c0-0.979,0.525-1.585,1.574-1.814
			c0.32-0.072,0.667-0.107,1.041-0.107c0.792,0,1.412,0.201,1.857,0.601c0.445,0.4,0.666,1.01,0.666,1.829v4.112h-0.908
			l-0.106-1.069c-0.392,0.811-1.099,1.215-2.122,1.215c-0.687,0-1.234-0.192-1.649-0.574c-0.414-0.382-0.62-0.859-0.62-1.428
			s0.229-1.014,0.688-1.334c0.46-0.321,1.03-0.48,1.715-0.48c0.686,0,1.34,0.116,1.962,0.348L240.902,39.658L240.902,39.658z
			 M240.902,41.139c-0.631-0.178-1.183-0.268-1.655-0.268s-0.854,0.085-1.148,0.254c-0.294,0.169-0.44,0.436-0.44,0.801
			c0,0.8,0.455,1.201,1.363,1.201c0.515,0,0.958-0.186,1.326-0.554C240.719,42.205,240.902,41.726,240.902,41.139z"/>
		<path fill="#FFFFFF" d="M245.441,38.643c0.417-0.925,1.134-1.388,2.148-1.388c0.756,0,1.345,0.25,1.768,0.748
			s0.636,1.179,0.636,2.042v3.751h-1.042v-3.751c0-0.614-0.146-1.078-0.435-1.389s-0.699-0.468-1.232-0.468
			c-0.535,0-0.967,0.218-1.294,0.654c-0.33,0.437-0.505,1.041-0.522,1.816v3.136h-1.054v-6.381h0.906L245.441,38.643z"/>
		<path fill="#FFFFFF" d="M256.654,38.361v-3.657h1.041v9.091h-0.854l-0.134-1.069c-0.205,0.401-0.477,0.703-0.813,0.909
			c-0.339,0.205-0.707,0.307-1.109,0.307c-0.809,0-1.487-0.312-2.035-0.935c-0.548-0.623-0.82-1.436-0.82-2.437
			s0.268-1.804,0.806-2.409c0.539-0.605,1.22-0.908,2.043-0.908C255.601,37.254,256.227,37.624,256.654,38.361z M254.839,38.188
			c-0.517,0-0.95,0.218-1.302,0.654c-0.353,0.437-0.528,1.019-0.528,1.749c0,0.73,0.178,1.314,0.535,1.756
			c0.357,0.439,0.783,0.661,1.281,0.661c0.497,0,0.923-0.167,1.275-0.501c0.352-0.333,0.535-0.781,0.554-1.341v-1.041
			c0-0.596-0.173-1.068-0.521-1.415C255.786,38.361,255.354,38.188,254.839,38.188z"/>
	</g>
	<g>
		<path fill="#FFFFFF" d="M201.604,51.271c0.897,0,1.621,0.225,2.169,0.675c0.548,0.449,0.923,1.034,1.128,1.755l-1.134,0.228
			c-0.178-0.524-0.456-0.94-0.834-1.249c-0.38-0.307-0.82-0.46-1.328-0.46c-0.702,0-1.286,0.294-1.748,0.883
			c-0.464,0.586-0.696,1.403-0.696,2.448c0,1.046,0.208,1.886,0.621,2.518c0.414,0.632,1.021,0.945,1.822,0.945
			c0.667,0,1.193-0.174,1.582-0.526c0.387-0.352,0.579-0.815,0.579-1.395h1.135c0,0.882-0.3,1.58-0.9,2.097s-1.424,0.774-2.47,0.774
			c-1.047,0-1.892-0.4-2.536-1.202c-0.645-0.801-0.968-1.872-0.968-3.217c0-1.343,0.335-2.391,1.001-3.144
			C199.694,51.646,200.554,51.271,201.604,51.271z"/>
		<path fill="#FFFFFF" d="M206.876,50.723h1.054v9.091h-1.054V50.723z"/>
		<path fill="#FFFFFF" d="M211.202,51.924c-0.214,0-0.381-0.061-0.501-0.181c-0.121-0.12-0.181-0.279-0.181-0.481
			c0-0.2,0.06-0.361,0.181-0.48c0.12-0.12,0.287-0.18,0.501-0.18s0.384,0.06,0.512,0.18c0.129,0.121,0.194,0.28,0.194,0.48
			c0,0.201-0.065,0.361-0.194,0.481C211.586,51.863,211.416,51.924,211.202,51.924z M210.681,53.419h1.055v6.395h-1.055V53.419z"/>
		<path fill="#FFFFFF" d="M215.62,54.661c0.418-0.926,1.135-1.39,2.148-1.39c0.553,0,1.015,0.136,1.389,0.409
			c0.373,0.271,0.646,0.646,0.813,1.128c0.401-1.023,1.144-1.534,2.23-1.534c0.765,0,1.357,0.248,1.775,0.747
			c0.418,0.497,0.627,1.179,0.627,2.042v3.751h-1.041v-3.751c0-0.612-0.145-1.077-0.434-1.388c-0.289-0.312-0.705-0.467-1.248-0.467
			c-0.544,0-0.963,0.223-1.263,0.668c-0.298,0.445-0.447,1.058-0.447,1.842v3.097h-1.041v-3.751c0-0.613-0.145-1.077-0.434-1.387
			c-0.289-0.313-0.7-0.468-1.234-0.468c-0.533,0-0.965,0.217-1.294,0.653s-0.503,1.041-0.521,1.814v3.138h-1.054v-6.381h0.907
			L215.62,54.661z"/>
		<path fill="#FFFFFF" d="M231.037,55.675c0-0.578-0.119-0.992-0.361-1.241c-0.238-0.249-0.588-0.373-1.046-0.373
			c-0.459,0-0.828,0.091-1.108,0.273s-0.42,0.469-0.42,0.86h-1.162c0-0.979,0.525-1.583,1.575-1.814
			c0.319-0.072,0.667-0.108,1.04-0.108c0.794,0,1.41,0.201,1.857,0.603c0.445,0.4,0.668,1.011,0.668,1.828v4.112h-0.909
			l-0.106-1.068c-0.393,0.81-1.1,1.215-2.122,1.215c-0.688,0-1.235-0.19-1.65-0.574c-0.412-0.382-0.619-0.857-0.619-1.427
			s0.229-1.015,0.688-1.335c0.459-0.319,1.03-0.48,1.715-0.48c0.686,0,1.339,0.115,1.961,0.348L231.037,55.675L231.037,55.675z
			 M231.037,57.156c-0.631-0.178-1.182-0.266-1.654-0.266s-0.854,0.084-1.148,0.253c-0.293,0.17-0.44,0.437-0.44,0.801
			c0,0.801,0.454,1.201,1.362,1.201c0.515,0,0.958-0.185,1.327-0.555C230.854,58.223,231.037,57.744,231.037,57.156z"/>
		<path fill="#FFFFFF" d="M237.9,59.627c-0.767,0.355-1.466,0.431-2.098,0.226c-0.455-0.141-0.774-0.439-0.961-0.894
			c-0.099-0.222-0.146-0.489-0.146-0.801v-3.925h-1.027v-0.801h1.027v-1.774h1.039v1.774h2.003v0.801h-2.003v3.912
			c0,0.649,0.305,0.974,0.909,0.974c0.33,0,0.699-0.079,1.107-0.239L237.9,59.627z"/>
		<path fill="#FFFFFF" d="M241.784,59.105c0.881,0,1.384-0.388,1.509-1.161h1.082c-0.098,0.642-0.38,1.137-0.848,1.488
			c-0.467,0.354-1.048,0.527-1.742,0.527c-0.854,0-1.548-0.305-2.083-0.914c-0.533-0.609-0.799-1.423-0.799-2.436
			c0-1.015,0.269-1.824,0.806-2.431c0.539-0.604,1.255-0.908,2.148-0.908c0.895,0,1.563,0.349,2.003,1.042
			c0.44,0.694,0.595,1.54,0.459,2.536h-4.363c0,0.658,0.159,1.198,0.48,1.621C240.756,58.895,241.206,59.105,241.784,59.105z
			 M242.559,54.273c-0.205-0.106-0.454-0.161-0.748-0.161c-0.543,0-0.972,0.186-1.287,0.554c-0.315,0.369-0.501,0.83-0.556,1.382
			h3.403C243.372,55.159,243.101,54.567,242.559,54.273z"/>
	</g>
	<g>
		<path fill="#FFFFFF" d="M201.604,67.289c0.897,0,1.621,0.226,2.169,0.674c0.548,0.451,0.923,1.034,1.128,1.755l-1.134,0.228
			c-0.178-0.524-0.456-0.941-0.834-1.248c-0.38-0.308-0.82-0.46-1.328-0.46c-0.702,0-1.286,0.294-1.748,0.882
			c-0.464,0.587-0.696,1.403-0.696,2.449c0,1.045,0.208,1.885,0.621,2.517c0.414,0.632,1.021,0.947,1.822,0.947
			c0.667,0,1.193-0.175,1.582-0.526c0.387-0.353,0.579-0.818,0.579-1.397h1.135c0,0.883-0.3,1.58-0.9,2.098
			c-0.601,0.517-1.424,0.774-2.47,0.774c-1.047,0-1.892-0.4-2.536-1.201s-0.968-1.874-0.968-3.217c0-1.344,0.335-2.392,1.001-3.145
			C199.694,67.664,200.554,67.289,201.604,67.289z"/>
		<path fill="#FFFFFF" d="M207.93,70.626c0.428-0.89,1.135-1.335,2.123-1.335c0.755,0,1.346,0.251,1.768,0.748
			c0.423,0.497,0.635,1.18,0.635,2.043v3.75h-1.039v-3.75c0-0.614-0.146-1.078-0.435-1.388c-0.289-0.312-0.705-0.468-1.247-0.468
			c-0.545,0-0.981,0.229-1.31,0.688c-0.33,0.459-0.495,1.093-0.495,1.903v3.016h-1.054v-9.09h1.054V70.626z"/>
		<path fill="#FFFFFF" d="M218.891,71.693c0-0.576-0.12-0.991-0.36-1.24s-0.589-0.373-1.048-0.373s-0.827,0.091-1.107,0.273
			s-0.421,0.47-0.421,0.861h-1.161c0-0.98,0.525-1.585,1.575-1.815c0.318-0.072,0.667-0.108,1.04-0.108
			c0.793,0,1.411,0.201,1.856,0.603c0.446,0.401,0.668,1.01,0.668,1.828v4.111h-0.909l-0.105-1.067
			c-0.394,0.811-1.1,1.215-2.123,1.215c-0.687,0-1.235-0.191-1.649-0.573c-0.413-0.382-0.62-0.858-0.62-1.429
			c0-0.569,0.229-1.015,0.688-1.334c0.459-0.32,1.031-0.48,1.716-0.48s1.338,0.115,1.962,0.348V71.693L218.891,71.693z
			 M218.891,73.175c-0.632-0.177-1.183-0.266-1.654-0.266c-0.473,0-0.854,0.084-1.148,0.255c-0.294,0.168-0.441,0.437-0.441,0.799
			c0,0.802,0.455,1.202,1.363,1.202c0.515,0,0.957-0.185,1.327-0.555C218.707,74.242,218.891,73.763,218.891,73.175z"/>
		<path fill="#FFFFFF" d="M223.43,70.681c0.418-0.927,1.135-1.39,2.148-1.39c0.756,0,1.346,0.251,1.769,0.748
			s0.634,1.18,0.634,2.043v3.75h-1.041v-3.75c0-0.614-0.145-1.078-0.434-1.388c-0.289-0.312-0.701-0.468-1.234-0.468
			s-0.965,0.217-1.294,0.653s-0.503,1.041-0.521,1.815v3.137h-1.054v-6.381h0.907L223.43,70.681z"/>
		<path fill="#FFFFFF" d="M230.73,75.632c-0.534-0.259-0.801-0.654-0.801-1.188c0-0.275,0.104-0.518,0.314-0.728
			c0.209-0.209,0.468-0.35,0.781-0.421c-0.48-0.426-0.722-0.987-0.722-1.682c0-0.693,0.248-1.254,0.743-1.682
			c0.492-0.427,1.078-0.642,1.755-0.642c0.676,0,1.249,0.161,1.722,0.481c0.062-0.473,0.251-0.849,0.567-1.134
			c0.314-0.285,0.731-0.427,1.247-0.427l-0.094,1.04c-0.783,0-1.192,0.328-1.228,0.988c0.312,0.383,0.467,0.841,0.467,1.374
			c0,0.687-0.246,1.248-0.741,1.689c-0.494,0.44-1.111,0.659-1.849,0.659c-0.508,0-0.957-0.102-1.349-0.307
			c-0.179,0.035-0.34,0.119-0.48,0.247c-0.144,0.129-0.215,0.306-0.215,0.527c0,0.472,0.392,0.708,1.176,0.708h2.483
			c0.595,0,1.067,0.126,1.416,0.38c0.347,0.254,0.52,0.606,0.52,1.06c0,0.678-0.341,1.271-1.021,1.776
			c-0.681,0.507-1.542,0.761-2.584,0.761c-1.039,0-1.857-0.194-2.454-0.581c-0.597-0.388-0.895-0.874-0.895-1.462
			c0-0.382,0.114-0.695,0.341-0.935C230.057,75.897,230.356,75.73,230.73,75.632z M230.529,77.033c0,0.338,0.186,0.63,0.555,0.875
			s0.93,0.367,1.682,0.367s1.38-0.162,1.883-0.488c0.503-0.324,0.754-0.705,0.754-1.14c0-0.206-0.073-0.381-0.221-0.528
			c-0.146-0.146-0.369-0.219-0.673-0.219h-2.577c-0.453,0.018-0.8,0.125-1.041,0.325C230.65,76.427,230.529,76.695,230.529,77.033z
			 M234.455,71.607c0-0.459-0.139-0.834-0.413-1.123c-0.276-0.287-0.656-0.432-1.141-0.432c-0.486,0-0.866,0.145-1.142,0.432
			c-0.274,0.289-0.412,0.666-0.412,1.13c0,0.461,0.14,0.844,0.42,1.14c0.279,0.298,0.659,0.447,1.141,0.447
			c0.48,0,0.857-0.151,1.134-0.453C234.316,72.446,234.455,72.065,234.455,71.607z"/>
		<path fill="#FFFFFF" d="M240.21,75.125c0.879,0,1.382-0.387,1.508-1.162h1.081c-0.097,0.642-0.378,1.137-0.846,1.489
			c-0.467,0.353-1.048,0.527-1.743,0.527c-0.854,0-1.548-0.306-2.083-0.913c-0.533-0.61-0.799-1.423-0.799-2.438
			s0.268-1.823,0.807-2.43c0.538-0.604,1.255-0.908,2.148-0.908c0.895,0,1.563,0.348,2.002,1.042c0.44,0.693,0.595,1.539,0.46,2.536
			h-4.363c0,0.657,0.159,1.198,0.479,1.62C239.181,74.913,239.632,75.125,240.21,75.125z M240.983,70.292
			c-0.205-0.106-0.455-0.16-0.747-0.16c-0.544,0-0.974,0.186-1.287,0.554c-0.316,0.368-0.502,0.829-0.556,1.381h3.403
			C241.797,71.179,241.525,70.586,240.983,70.292z"/>
	</g>
</g>
<g>
	<path fill="#FFE000" d="M117.037,57.33c-2.254,1.955-5.183,3.152-8.401,3.152c-7.106,0-12.868-5.762-12.868-12.867
		c0-7.107,5.762-12.868,12.868-12.868c2.648,0,5.1,0.809,7.144,2.182l1.764-2.253c-2.533-1.755-5.599-2.788-8.908-2.788
		c-8.671,0-15.727,7.054-15.727,15.727c0,8.671,7.055,15.726,15.727,15.726c3.908,0,7.469-1.452,10.221-3.823L117.037,57.33z"/>
	<path fill="#FFE000" d="M124.863,66.734c-4.378,3.724-10.042,5.979-16.227,5.979c-13.839,0-25.098-11.26-25.098-25.098
		c0-13.841,11.259-25.099,25.098-25.099c5.485,0,10.558,1.776,14.691,4.773l1.771-2.264c-4.618-3.371-10.306-5.369-16.462-5.369
		c-15.44,0-27.958,12.517-27.958,27.958c0,15.44,12.518,27.956,27.958,27.956c6.889,0,13.195-2.49,18.069-6.623L124.863,66.734z"/>
	<path fill="#FFE000" d="M120.984,62.074c-3.327,2.848-7.636,4.576-12.349,4.576C98.14,66.65,89.6,58.109,89.6,47.615
		c0-10.497,8.54-19.036,19.036-19.036c4.078,0,7.848,1.299,10.945,3.495l1.771-2.262c-3.587-2.571-7.975-4.093-12.715-4.093
		c-12.073,0-21.895,9.821-21.895,21.896c0,12.07,9.822,21.895,21.895,21.895c5.407,0,10.354-1.979,14.176-5.238L120.984,62.074z"/>
</g>
<g>
	<path fill="#FFE000" d="M129.488,40.72c1.704,2.409,4.524,4.113,7.638,4.113c3.878,0,7.697-3.055,7.697-7.461
		c0-4.289-3.526-7.521-8.108-7.521c-1.646,0-3.408,0.412-4.936,1.175v-4.701l7.697-9.106h-13.75v-7.052h24.971v4.701l-7.461,9.166
		c5.641,2.174,9.518,7.109,9.518,13.337c0,8.695-6.816,14.513-15.335,14.513c-5.112,0-9.988-2.292-13.631-6.404L129.488,40.72z"/>
</g>
</svg>
