<?xml version="1.0" encoding="utf-8"?>
<!-- Generator: Adobe Illustrator 15.0.0, SVG Export Plug-In . SVG Version: 6.00 Build 0)  -->
<!DOCTYPE svg PUBLIC "-//W3C//DTD SVG 1.1//EN" "http://www.w3.org/Graphics/SVG/1.1/DTD/svg11.dtd">
<svg version="1.1" id="Layer_1" xmlns="http://www.w3.org/2000/svg" xmlns:xlink="http://www.w3.org/1999/xlink" x="0px" y="0px"
	 width="320px" height="95px" viewBox="0 0 320 95" enable-background="new 0 0 320 95" xml:space="preserve">
<g>
	<path fill="#FFFFFF" d="M129.488,41.053c1.704,2.409,4.524,4.113,7.638,4.113c3.878,0,7.697-3.055,7.697-7.461
		c0-4.289-3.526-7.521-8.108-7.521c-1.646,0-3.408,0.412-4.936,1.175v-4.701l7.697-9.106h-13.75V10.5h24.971v4.701l-7.461,9.166
		c5.641,2.174,9.518,7.109,9.518,13.337c0,8.695-6.816,14.513-15.335,14.513c-5.112,0-9.988-2.292-13.631-6.404L129.488,41.053z"/>
</g>
<g>
	<path fill="#FFDB16" d="M117.037,57.663c-2.254,1.955-5.183,3.151-8.401,3.151c-7.106,0-12.868-5.763-12.868-12.866
		c0-7.107,5.762-12.868,12.868-12.868c2.648,0,5.1,0.809,7.144,2.182l1.764-2.253c-2.533-1.755-5.599-2.788-8.908-2.788
		c-8.671,0-15.727,7.054-15.727,15.727c0,8.671,7.055,15.726,15.727,15.726c3.908,0,7.469-1.453,10.221-3.822L117.037,57.663z"/>
	<path fill="#FFDB16" d="M124.863,67.066c-4.378,3.725-10.042,5.979-16.227,5.979c-13.839,0-25.098-11.26-25.098-25.098
		c0-13.841,11.259-25.099,25.098-25.099c5.485,0,10.558,1.776,14.691,4.773l1.771-2.264c-4.618-3.371-10.306-5.369-16.462-5.369
		c-15.44,0-27.958,12.517-27.958,27.958c0,15.439,12.518,27.957,27.958,27.957c6.889,0,13.195-2.49,18.069-6.623L124.863,67.066z"/>
	<path fill="#FFDB16" d="M120.984,62.407c-3.327,2.848-7.636,4.575-12.349,4.575c-10.496,0-19.036-8.539-19.036-19.034
		c0-10.497,8.54-19.036,19.036-19.036c4.078,0,7.848,1.299,10.945,3.495l1.771-2.262c-3.587-2.571-7.975-4.093-12.715-4.093
		c-12.073,0-21.895,9.821-21.895,21.896c0,12.071,9.822,21.895,21.895,21.895c5.407,0,10.354-1.979,14.176-5.237L120.984,62.407z"/>
</g>
<rect x="20.364" y="20.378" fill="#FFFFFF" width="12.158" height="54.845"/>
<polygon fill="#FFDB16" points="33.063,20.378 20.364,20.378 41.037,70.294 53.458,70.294 "/>
<polygon fill="#FFFFFF" points="61.648,20.378 74.076,20.378 53.458,70.294 41.037,70.294 "/>
<rect x="61.919" y="20.378" fill="#FFDB16" width="12.157" height="54.845"/>
<g>
	<g>
		<path fill="#FFDB16" d="M201.106,19.704l2.8,5.627l2.773-5.627h1.465v8.308h-1.042v-6.829l-2.854,5.785h-0.698l-2.894-5.878v6.921
			h-1.042v-8.308H201.106z"/>
		<path fill="#FFDB16" d="M212.993,27.312c0.872,0,1.369-0.382,1.493-1.148h1.07c-0.096,0.634-0.375,1.125-0.838,1.472
			c-0.459,0.349-1.034,0.522-1.723,0.522c-0.846,0-1.532-0.301-2.062-0.905c-0.527-0.604-0.791-1.407-0.791-2.411
			c0-1.003,0.266-1.804,0.799-2.403s1.241-0.898,2.126-0.898c0.884,0,1.547,0.344,1.98,1.03c0.436,0.687,0.587,1.524,0.455,2.51
			h-4.318c0,0.652,0.158,1.187,0.475,1.605C211.976,27.103,212.421,27.312,212.993,27.312z M213.76,22.53
			c-0.202-0.105-0.451-0.158-0.739-0.158c-0.54,0-0.965,0.183-1.275,0.548c-0.312,0.365-0.496,0.821-0.549,1.367h3.367
			C214.564,23.408,214.297,22.821,213.76,22.53z"/>
		<path fill="#FFDB16" d="M221.752,22.637v-3.619h1.029v8.995h-0.846l-0.132-1.057c-0.201,0.396-0.47,0.695-0.806,0.899
			c-0.335,0.203-0.697,0.303-1.096,0.303c-0.8,0-1.472-0.308-2.015-0.925c-0.542-0.616-0.812-1.42-0.812-2.409
			c0-0.991,0.267-1.785,0.799-2.384c0.534-0.599,1.208-0.898,2.021-0.898C220.71,21.542,221.327,21.905,221.752,22.637z
			 M219.955,22.465c-0.511,0-0.94,0.215-1.288,0.647s-0.522,1.008-0.522,1.73c0,0.723,0.177,1.301,0.529,1.737
			c0.352,0.435,0.774,0.654,1.267,0.654c0.493,0,0.915-0.165,1.263-0.496c0.348-0.33,0.53-0.773,0.549-1.328v-1.029
			c0-0.59-0.172-1.057-0.517-1.4C220.894,22.637,220.466,22.465,219.955,22.465z"/>
		<path fill="#FFDB16" d="M226.044,20.207c-0.211,0-0.376-0.06-0.495-0.179c-0.12-0.118-0.178-0.277-0.178-0.476
			c0-0.198,0.058-0.357,0.178-0.475c0.119-0.119,0.284-0.179,0.495-0.179c0.214,0,0.381,0.06,0.508,0.179
			c0.128,0.119,0.192,0.277,0.192,0.475s-0.064,0.359-0.192,0.476C226.425,20.146,226.256,20.207,226.044,20.207z M225.527,21.686
			h1.045v6.327h-1.045V21.686z"/>
		<path fill="#FFDB16" d="M232.715,27.828c-0.757,0.353-1.449,0.427-2.074,0.225c-0.45-0.141-0.768-0.437-0.951-0.885
			c-0.097-0.221-0.145-0.485-0.145-0.793v-3.884h-1.018v-0.793h1.018v-1.755h1.028v1.756h1.98v0.793h-1.98v3.871
			c0,0.644,0.3,0.964,0.898,0.964c0.325,0,0.692-0.079,1.096-0.238L232.715,27.828z"/>
		<path fill="#FFDB16" d="M236.559,27.312c0.871,0,1.369-0.382,1.493-1.148h1.07c-0.097,0.634-0.376,1.125-0.838,1.472
			c-0.462,0.349-1.037,0.522-1.724,0.522c-0.846,0-1.534-0.301-2.062-0.905c-0.528-0.604-0.791-1.407-0.791-2.411
			c0-1.003,0.265-1.804,0.799-2.403c0.533-0.599,1.241-0.898,2.126-0.898c0.883,0,1.545,0.344,1.98,1.03
			c0.435,0.687,0.587,1.524,0.455,2.51h-4.319c0,0.652,0.158,1.187,0.476,1.605C235.541,27.103,235.986,27.312,236.559,27.312z
			 M237.324,22.53c-0.202-0.105-0.45-0.158-0.739-0.158c-0.54,0-0.965,0.183-1.274,0.548c-0.313,0.365-0.498,0.821-0.549,1.367
			h3.367C238.129,23.408,237.861,22.821,237.324,22.53z"/>
		<path fill="#FFDB16" d="M243.756,22.584c-0.994,0-1.509,0.784-1.547,2.351v3.078h-1.041v-6.327h1.041v1.216
			c0.318-0.88,0.878-1.321,1.679-1.321c0.258,0,0.499,0.04,0.728,0.119l-0.052,1.017C244.3,22.627,244.031,22.584,243.756,22.584z"
			/>
		<path fill="#FFDB16" d="M248.789,22.584c-0.995,0-1.508,0.784-1.546,2.351v3.078H246.2v-6.327h1.043v1.216
			c0.317-0.88,0.878-1.321,1.679-1.321c0.256,0,0.497,0.04,0.727,0.119l-0.053,1.017C249.332,22.627,249.062,22.584,248.789,22.584z
			"/>
		<path fill="#FFDB16" d="M255.156,23.918c0-0.572-0.12-0.982-0.359-1.229c-0.237-0.246-0.583-0.37-1.034-0.37
			c-0.454,0-0.821,0.091-1.096,0.272c-0.277,0.181-0.416,0.464-0.416,0.852h-1.15c0-0.969,0.52-1.568,1.557-1.796
			c0.317-0.071,0.66-0.105,1.03-0.105c0.784,0,1.396,0.198,1.836,0.595c0.442,0.396,0.661,1,0.661,1.809v4.068h-0.899l-0.104-1.057
			c-0.388,0.801-1.088,1.202-2.101,1.202c-0.679,0-1.221-0.19-1.631-0.567c-0.411-0.378-0.614-0.85-0.614-1.414
			c0-0.563,0.224-1.003,0.68-1.32c0.456-0.317,1.02-0.475,1.697-0.475s1.324,0.115,1.939,0.343v-0.808H255.156L255.156,23.918z
			 M255.156,25.384c-0.627-0.176-1.171-0.265-1.64-0.265c-0.466,0-0.844,0.083-1.134,0.25c-0.291,0.167-0.438,0.432-0.438,0.793
			c0,0.792,0.451,1.188,1.349,1.188c0.509,0,0.948-0.183,1.312-0.548C254.973,26.438,255.156,25.964,255.156,25.384z"/>
		<path fill="#FFDB16" d="M259.647,22.914c0.413-0.915,1.121-1.373,2.124-1.373c0.75,0,1.332,0.246,1.75,0.74
			s0.628,1.167,0.628,2.021v3.711h-1.029v-3.711c0-0.608-0.143-1.066-0.429-1.375c-0.287-0.308-0.692-0.462-1.221-0.462
			s-0.956,0.215-1.281,0.647s-0.498,1.029-0.516,1.796v3.104h-1.042v-6.314h0.896L259.647,22.914z"/>
		<path fill="#FFDB16" d="M268.788,27.312c0.872,0,1.369-0.382,1.494-1.148h1.07c-0.097,0.634-0.376,1.125-0.838,1.472
			c-0.461,0.349-1.035,0.522-1.725,0.522c-0.843,0-1.532-0.301-2.061-0.905c-0.528-0.604-0.791-1.407-0.791-2.411
			c0-1.003,0.266-1.804,0.798-2.403c0.535-0.599,1.241-0.898,2.127-0.898c0.882,0,1.545,0.344,1.98,1.03
			c0.434,0.687,0.586,1.524,0.454,2.51h-4.319c0,0.652,0.159,1.187,0.477,1.605C267.771,27.103,268.216,27.312,268.788,27.312z
			 M269.556,22.53c-0.204-0.105-0.451-0.158-0.739-0.158c-0.541,0-0.966,0.183-1.275,0.548c-0.312,0.365-0.497,0.821-0.549,1.367
			h3.366C270.359,23.408,270.09,22.821,269.556,22.53z"/>
		<path fill="#FFDB16" d="M277.32,23.918c0-0.572-0.118-0.982-0.357-1.229c-0.237-0.246-0.581-0.37-1.035-0.37
			s-0.819,0.091-1.097,0.272s-0.416,0.464-0.416,0.852h-1.149c0-0.969,0.521-1.568,1.559-1.796c0.315-0.071,0.66-0.105,1.029-0.105
			c0.785,0,1.396,0.198,1.836,0.595c0.441,0.396,0.66,1,0.66,1.809v4.068h-0.898l-0.105-1.057c-0.39,0.801-1.087,1.202-2.101,1.202
			c-0.68,0-1.221-0.19-1.633-0.567c-0.408-0.378-0.612-0.85-0.612-1.414c0-0.563,0.225-1.003,0.681-1.32
			c0.453-0.317,1.019-0.475,1.696-0.475s1.324,0.115,1.94,0.343L277.32,23.918L277.32,23.918z M277.32,25.384
			c-0.625-0.176-1.169-0.265-1.637-0.265c-0.469,0-0.846,0.083-1.137,0.25c-0.29,0.167-0.436,0.432-0.436,0.793
			c0,0.792,0.449,1.188,1.348,1.188c0.509,0,0.948-0.183,1.313-0.548C277.139,26.438,277.32,25.964,277.32,25.384z"/>
		<path fill="#FFDB16" d="M281.812,22.914c0.414-0.915,1.123-1.373,2.126-1.373c0.75,0,1.331,0.246,1.749,0.74
			s0.629,1.167,0.629,2.021v3.711h-1.03v-3.711c0-0.608-0.143-1.066-0.429-1.375c-0.287-0.308-0.692-0.462-1.221-0.462
			c-0.53,0-0.957,0.215-1.281,0.647s-0.499,1.029-0.515,1.796v3.104h-1.043v-6.314h0.896L281.812,22.914z"/>
	</g>
	<g>
		<path fill="#FFDB16" d="M202.493,35.41c0.888,0,1.604,0.222,2.146,0.667c0.542,0.446,0.914,1.024,1.116,1.737l-1.122,0.225
			c-0.174-0.52-0.451-0.931-0.825-1.235c-0.376-0.304-0.812-0.456-1.312-0.456c-0.693,0-1.272,0.291-1.731,0.872
			c-0.457,0.582-0.688,1.389-0.688,2.424c0,1.035,0.205,1.864,0.615,2.489c0.409,0.625,1.01,0.938,1.803,0.938
			c0.659,0,1.181-0.174,1.565-0.522c0.382-0.347,0.572-0.807,0.572-1.379h1.122c0,0.871-0.297,1.563-0.89,2.074
			c-0.596,0.511-1.409,0.766-2.444,0.766c-1.038,0-1.872-0.396-2.51-1.188c-0.638-0.792-0.957-1.854-0.957-3.184
			c0-1.329,0.331-2.367,0.991-3.111C200.604,35.782,201.454,35.41,202.493,35.41z"/>
		<path fill="#FFDB16" d="M208.292,36.057c-0.212,0-0.378-0.059-0.496-0.178c-0.119-0.119-0.179-0.277-0.179-0.477
			c0-0.198,0.06-0.357,0.179-0.475c0.118-0.119,0.284-0.179,0.496-0.179c0.213,0,0.381,0.06,0.507,0.179s0.192,0.277,0.192,0.475
			s-0.066,0.357-0.192,0.477S208.503,36.057,208.292,36.057z M207.775,37.536h1.042v6.328h-1.042V37.536z"/>
		<path fill="#FFDB16" d="M214.962,43.679c-0.756,0.353-1.449,0.427-2.075,0.224c-0.45-0.141-0.766-0.436-0.951-0.885
			c-0.096-0.22-0.146-0.484-0.146-0.792v-3.884h-1.016v-0.792h1.016v-1.757h1.03v1.757h1.98v0.792h-1.98v3.871
			c0,0.644,0.301,0.964,0.897,0.964c0.326,0,0.691-0.079,1.097-0.238L214.962,43.679z"/>
		<path fill="#FFDB16" d="M217.207,36.057c-0.211,0-0.375-0.059-0.495-0.178s-0.179-0.277-0.179-0.477
			c0-0.198,0.059-0.357,0.179-0.475c0.12-0.119,0.284-0.179,0.495-0.179c0.213,0,0.381,0.06,0.508,0.179
			c0.128,0.119,0.192,0.277,0.192,0.475s-0.064,0.357-0.192,0.477C217.588,35.998,217.418,36.057,217.207,36.057z M216.693,37.536
			h1.042v6.328h-1.042V37.536z"/>
		<path fill="#FFDB16" d="M222.757,43.164c0.872,0,1.367-0.382,1.493-1.148h1.069c-0.096,0.634-0.373,1.125-0.836,1.473
			c-0.462,0.348-1.037,0.522-1.725,0.522c-0.845,0-1.532-0.302-2.061-0.905c-0.529-0.604-0.791-1.408-0.791-2.411
			s0.266-1.805,0.798-2.404s1.241-0.898,2.125-0.898s1.548,0.344,1.979,1.03c0.437,0.687,0.59,1.524,0.455,2.51h-4.317
			c0,0.651,0.157,1.186,0.474,1.604C221.737,42.954,222.184,43.164,222.757,43.164z M223.521,38.382
			c-0.205-0.106-0.452-0.159-0.74-0.159c-0.539,0-0.963,0.184-1.275,0.549c-0.311,0.365-0.495,0.821-0.548,1.367h3.366
			C224.326,39.259,224.059,38.672,223.521,38.382z"/>
		<path fill="#FFDB16" d="M227.715,37.854c0.447-0.308,1.047-0.462,1.803-0.462c0.758,0,1.351,0.158,1.778,0.475
			c0.427,0.317,0.648,0.718,0.666,1.203h-1.018c-0.078-0.572-0.563-0.859-1.453-0.859c-0.432,0-0.763,0.098-0.997,0.291
			c-0.233,0.193-0.35,0.403-0.35,0.627c0,0.224,0.086,0.413,0.262,0.568c0.174,0.154,0.456,0.289,0.843,0.403l1.269,0.422
			c0.537,0.167,0.949,0.381,1.235,0.641c0.285,0.26,0.429,0.617,0.429,1.071c0,0.453-0.232,0.862-0.7,1.228
			c-0.465,0.365-1.118,0.548-1.955,0.548c-0.834,0-1.488-0.188-1.954-0.562c-0.466-0.373-0.714-0.856-0.739-1.446h1.003
			c0.018,0.396,0.179,0.693,0.482,0.892c0.305,0.198,0.685,0.296,1.143,0.296c0.457,0,0.835-0.096,1.136-0.291
			c0.3-0.193,0.451-0.425,0.451-0.693c0-0.268-0.09-0.473-0.265-0.614s-0.462-0.265-0.857-0.37l-1.229-0.409
			c-1.101-0.326-1.648-0.898-1.648-1.718C227.049,38.576,227.27,38.162,227.715,37.854z"/>
		<path fill="#FFDB16" d="M241.38,39.77c0-0.573-0.12-0.981-0.357-1.229c-0.236-0.246-0.585-0.37-1.037-0.37
			c-0.454,0-0.819,0.09-1.097,0.271c-0.275,0.181-0.414,0.465-0.414,0.852h-1.15c0-0.969,0.521-1.568,1.559-1.795
			c0.314-0.071,0.659-0.105,1.028-0.105c0.785,0,1.397,0.198,1.836,0.594c0.442,0.396,0.66,1,0.66,1.81v4.069h-0.899l-0.104-1.057
			c-0.389,0.802-1.087,1.203-2.101,1.203c-0.679,0-1.221-0.19-1.632-0.568c-0.41-0.378-0.613-0.85-0.613-1.413
			c0-0.564,0.226-1.003,0.68-1.321c0.455-0.317,1.021-0.476,1.697-0.476s1.325,0.115,1.941,0.344L241.38,39.77L241.38,39.77z
			 M241.38,41.235c-0.626-0.176-1.171-0.264-1.639-0.264c-0.47,0-0.845,0.083-1.136,0.251c-0.291,0.167-0.437,0.432-0.437,0.792
			c0,0.792,0.45,1.189,1.349,1.189c0.51,0,0.948-0.184,1.312-0.548C241.197,42.29,241.38,41.816,241.38,41.235z"/>
		<path fill="#FFDB16" d="M245.871,38.765c0.412-0.915,1.121-1.373,2.125-1.373c0.747,0,1.331,0.247,1.748,0.74
			c0.419,0.494,0.63,1.167,0.63,2.021v3.712h-1.031v-3.712c0-0.607-0.143-1.066-0.43-1.374c-0.286-0.308-0.691-0.462-1.22-0.462
			c-0.529,0-0.956,0.215-1.28,0.646c-0.326,0.432-0.499,1.03-0.517,1.797v3.104h-1.042v-6.315h0.896L245.871,38.765z"/>
		<path fill="#FFDB16" d="M256.966,38.487v-3.619h1.029v8.996h-0.844l-0.132-1.058c-0.204,0.396-0.473,0.695-0.806,0.899
			c-0.336,0.203-0.699,0.304-1.099,0.304c-0.798,0-1.47-0.308-2.013-0.925c-0.542-0.616-0.812-1.42-0.812-2.411
			c0-0.991,0.265-1.785,0.797-2.384c0.534-0.599,1.207-0.898,2.021-0.898C255.923,37.391,256.543,37.756,256.966,38.487z
			 M255.169,38.315c-0.511,0-0.94,0.215-1.288,0.647c-0.349,0.432-0.522,1.008-0.522,1.73s0.176,1.301,0.529,1.737
			c0.354,0.436,0.775,0.654,1.269,0.654c0.492,0,0.912-0.165,1.261-0.496c0.349-0.33,0.53-0.772,0.549-1.327v-1.029
			c0-0.589-0.171-1.057-0.515-1.4C256.106,38.487,255.68,38.315,255.169,38.315z"/>
	</g>
	<g>
		<path fill="#FFDB16" d="M202.493,51.26c0.888,0,1.604,0.223,2.146,0.668s0.914,1.023,1.116,1.736l-1.122,0.225
			c-0.174-0.519-0.451-0.931-0.825-1.235c-0.376-0.304-0.812-0.454-1.312-0.454c-0.693,0-1.272,0.291-1.731,0.872
			c-0.457,0.581-0.688,1.39-0.688,2.423c0,1.034,0.205,1.865,0.615,2.491c0.409,0.625,1.01,0.938,1.803,0.938
			c0.659,0,1.181-0.174,1.565-0.521c0.382-0.35,0.572-0.81,0.572-1.382h1.122c0,0.873-0.297,1.562-0.89,2.075
			c-0.596,0.51-1.409,0.767-2.444,0.767c-1.038,0-1.872-0.396-2.51-1.189c-0.638-0.791-0.957-1.854-0.957-3.183
			c0-1.331,0.331-2.365,0.991-3.111S201.454,51.26,202.493,51.26z"/>
		<path fill="#FFDB16" d="M207.71,50.718h1.043v8.995h-1.043V50.718z"/>
		<path fill="#FFDB16" d="M211.99,51.907c-0.211,0-0.377-0.061-0.495-0.179c-0.12-0.119-0.179-0.277-0.179-0.477
			c0-0.198,0.059-0.357,0.179-0.476c0.118-0.119,0.284-0.179,0.495-0.179c0.212,0,0.381,0.06,0.507,0.179s0.192,0.277,0.192,0.476
			s-0.066,0.357-0.192,0.477C212.371,51.847,212.202,51.907,211.99,51.907z M211.475,53.387h1.044v6.326h-1.044V53.387z"/>
		<path fill="#FFDB16" d="M216.362,54.615c0.413-0.916,1.122-1.374,2.126-1.374c0.547,0,1.004,0.134,1.374,0.405
			c0.369,0.267,0.639,0.64,0.805,1.116c0.397-1.014,1.132-1.519,2.207-1.519c0.757,0,1.343,0.248,1.757,0.739
			c0.414,0.49,0.62,1.168,0.62,2.021v3.712h-1.029v-3.713c0-0.607-0.144-1.065-0.43-1.372c-0.286-0.31-0.698-0.462-1.234-0.462
			c-0.538,0-0.953,0.218-1.249,0.658c-0.296,0.443-0.443,1.049-0.443,1.825v3.064h-1.03v-3.712c0-0.604-0.143-1.065-0.429-1.372
			c-0.286-0.31-0.691-0.462-1.222-0.462c-0.527,0-0.955,0.216-1.279,0.647c-0.325,0.432-0.499,1.027-0.516,1.794v3.104h-1.043V53.4
			h0.897L216.362,54.615z"/>
		<path fill="#FFDB16" d="M231.618,55.618c0-0.571-0.119-0.98-0.358-1.227c-0.235-0.247-0.581-0.372-1.035-0.372
			s-0.818,0.092-1.096,0.271c-0.277,0.181-0.416,0.465-0.416,0.852h-1.15c0-0.968,0.521-1.565,1.56-1.796
			c0.315-0.07,0.659-0.105,1.028-0.105c0.785,0,1.396,0.197,1.837,0.597c0.44,0.396,0.66,1,0.66,1.81v4.068h-0.898l-0.106-1.057
			c-0.39,0.8-1.087,1.202-2.101,1.202c-0.68,0-1.221-0.189-1.633-0.568c-0.406-0.378-0.612-0.849-0.612-1.412
			c0-0.564,0.226-1.005,0.681-1.32c0.453-0.316,1.021-0.475,1.696-0.475c0.678,0,1.324,0.115,1.94,0.343L231.618,55.618
			L231.618,55.618z M231.618,57.084c-0.625-0.176-1.17-0.264-1.638-0.264c-0.469,0-0.846,0.084-1.136,0.253
			c-0.291,0.167-0.437,0.432-0.437,0.79c0,0.793,0.449,1.189,1.348,1.189c0.51,0,0.948-0.182,1.314-0.548
			C231.437,58.14,231.618,57.666,231.618,57.084z"/>
		<path fill="#FFDB16" d="M238.408,59.528c-0.758,0.352-1.451,0.427-2.077,0.224c-0.45-0.14-0.766-0.436-0.95-0.884
			c-0.098-0.221-0.146-0.484-0.146-0.793v-3.883h-1.017V53.4h1.017v-1.756h1.028V53.4h1.981v0.792h-1.981v3.871
			c0,0.644,0.302,0.964,0.898,0.964c0.327,0,0.692-0.078,1.097-0.239L238.408,59.528z"/>
		<path fill="#FFDB16" d="M242.252,59.015c0.871,0,1.369-0.385,1.493-1.151h1.071c-0.097,0.635-0.376,1.125-0.839,1.473
			c-0.461,0.35-1.036,0.522-1.724,0.522c-0.844,0-1.532-0.303-2.061-0.904s-0.79-1.407-0.79-2.411c0-1.002,0.264-1.805,0.796-2.404
			c0.535-0.598,1.242-0.897,2.125-0.897c0.885,0,1.548,0.343,1.981,1.03c0.437,0.688,0.589,1.523,0.454,2.509h-4.318
			c0,0.65,0.158,1.188,0.476,1.604C241.234,58.804,241.68,59.015,242.252,59.015z M243.018,54.231
			c-0.202-0.105-0.449-0.159-0.74-0.159c-0.536,0-0.962,0.183-1.272,0.548s-0.496,0.822-0.548,1.367h3.366
			C243.823,55.109,243.555,54.522,243.018,54.231z"/>
	</g>
	<g>
		<path fill="#FFDB16" d="M202.493,67.111c0.888,0,1.604,0.221,2.146,0.666s0.914,1.024,1.116,1.738l-1.122,0.224
			c-0.174-0.52-0.451-0.931-0.825-1.235c-0.376-0.304-0.812-0.456-1.312-0.456c-0.693,0-1.272,0.293-1.731,0.875
			c-0.457,0.58-0.688,1.389-0.688,2.423s0.205,1.865,0.615,2.49c0.409,0.626,1.01,0.936,1.803,0.936
			c0.659,0,1.181-0.171,1.565-0.521c0.382-0.347,0.572-0.808,0.572-1.38h1.122c0,0.873-0.297,1.563-0.89,2.075
			c-0.596,0.512-1.409,0.767-2.444,0.767c-1.038,0-1.872-0.396-2.51-1.187c-0.638-0.794-0.957-1.854-0.957-3.186
			c0-1.328,0.331-2.365,0.991-3.108C200.604,67.482,201.454,67.111,202.493,67.111z"/>
		<path fill="#FFDB16" d="M208.753,70.412c0.423-0.88,1.123-1.319,2.101-1.319c0.747,0,1.332,0.246,1.749,0.74
			c0.418,0.494,0.628,1.167,0.628,2.021v3.711h-1.028v-3.711c0-0.605-0.144-1.066-0.43-1.373c-0.286-0.31-0.698-0.462-1.234-0.462
			c-0.539,0-0.971,0.228-1.295,0.68c-0.327,0.453-0.49,1.082-0.49,1.885v2.983h-1.043v-8.995h1.043V70.412z"/>
		<path fill="#FFDB16" d="M219.599,71.47c0-0.572-0.119-0.98-0.357-1.228c-0.236-0.246-0.582-0.369-1.036-0.369
			s-0.818,0.091-1.096,0.269c-0.277,0.181-0.416,0.465-0.416,0.852h-1.15c0-0.968,0.521-1.565,1.56-1.793
			c0.315-0.073,0.659-0.107,1.028-0.107c0.785,0,1.396,0.196,1.837,0.596c0.442,0.397,0.66,1,0.66,1.81v4.068h-0.898l-0.105-1.057
			c-0.391,0.802-1.088,1.203-2.101,1.203c-0.681,0-1.222-0.188-1.634-0.568c-0.406-0.378-0.611-0.85-0.611-1.412
			c0-0.563,0.225-1.006,0.68-1.32c0.455-0.315,1.021-0.476,1.696-0.476c0.678,0,1.324,0.115,1.941,0.343v-0.81H219.599z
			 M219.599,72.935c-0.625-0.174-1.169-0.264-1.638-0.264s-0.846,0.085-1.136,0.254c-0.291,0.169-0.437,0.432-0.437,0.791
			c0,0.792,0.449,1.188,1.349,1.188c0.509,0,0.947-0.182,1.313-0.548C219.417,73.99,219.599,73.517,219.599,72.935z"/>
		<path fill="#FFDB16" d="M224.09,70.466c0.413-0.916,1.122-1.373,2.125-1.373c0.749,0,1.332,0.246,1.751,0.74
			c0.418,0.494,0.627,1.167,0.627,2.021v3.711h-1.03v-3.711c0-0.605-0.143-1.066-0.429-1.373c-0.287-0.31-0.693-0.462-1.222-0.462
			c-0.527,0-0.955,0.216-1.279,0.647c-0.325,0.432-0.499,1.028-0.516,1.794v3.104h-1.043v-6.314h0.897L224.09,70.466z"/>
		<path fill="#FFDB16" d="M231.313,75.366c-0.527-0.255-0.792-0.646-0.792-1.174c0-0.273,0.104-0.515,0.312-0.721
			c0.207-0.208,0.463-0.347,0.772-0.416c-0.476-0.422-0.714-0.978-0.714-1.663c0-0.689,0.245-1.244,0.735-1.665
			c0.487-0.423,1.067-0.635,1.737-0.635c0.669,0,1.235,0.159,1.702,0.477c0.064-0.467,0.249-0.84,0.562-1.122
			s0.725-0.423,1.234-0.423l-0.093,1.028c-0.774,0-1.18,0.326-1.214,0.979c0.308,0.379,0.462,0.833,0.462,1.36
			c0,0.678-0.244,1.234-0.735,1.671c-0.488,0.435-1.099,0.653-1.83,0.653c-0.501,0-0.946-0.101-1.333-0.306
			c-0.177,0.035-0.338,0.117-0.476,0.244c-0.142,0.127-0.214,0.303-0.214,0.522c0,0.466,0.387,0.699,1.163,0.699h2.458
			c0.591,0,1.059,0.123,1.402,0.374c0.344,0.254,0.515,0.602,0.515,1.051c0,0.669-0.338,1.257-1.012,1.756
			c-0.674,0.502-1.525,0.754-2.556,0.754c-1.029,0-1.839-0.192-2.429-0.575c-0.591-0.383-0.885-0.865-0.885-1.446
			c0-0.378,0.113-0.687,0.337-0.924S230.943,75.464,231.313,75.366z M231.114,76.753c0,0.334,0.184,0.623,0.548,0.865
			c0.366,0.242,0.922,0.364,1.664,0.364c0.743,0,1.365-0.163,1.863-0.484c0.499-0.32,0.745-0.697,0.745-1.128
			c0-0.203-0.071-0.377-0.217-0.521c-0.146-0.146-0.365-0.219-0.667-0.219h-2.55c-0.449,0.021-0.791,0.126-1.029,0.324
			C231.233,76.153,231.114,76.419,231.114,76.753z M235,71.383c0-0.454-0.138-0.825-0.41-1.111
			c-0.271-0.285-0.647-0.429-1.127-0.429c-0.48,0-0.856,0.144-1.129,0.429c-0.271,0.286-0.407,0.658-0.407,1.118
			c0,0.456,0.139,0.834,0.416,1.129c0.274,0.296,0.65,0.443,1.127,0.443c0.476,0,0.849-0.149,1.12-0.451
			C234.862,72.214,235,71.837,235,71.383z"/>
		<path fill="#FFDB16" d="M240.694,74.865c0.87,0,1.367-0.385,1.491-1.149h1.071c-0.096,0.633-0.373,1.122-0.836,1.471
			c-0.462,0.35-1.037,0.521-1.725,0.521c-0.846,0-1.532-0.302-2.062-0.904c-0.527-0.601-0.789-1.407-0.789-2.409
			s0.264-1.805,0.798-2.405c0.533-0.597,1.242-0.896,2.125-0.896c0.884,0,1.548,0.342,1.979,1.028
			c0.437,0.689,0.59,1.523,0.455,2.508h-4.317c0,0.652,0.157,1.188,0.474,1.605C239.674,74.652,240.121,74.865,240.694,74.865z
			 M241.459,70.083c-0.202-0.105-0.449-0.159-0.739-0.159c-0.538,0-0.963,0.183-1.273,0.549c-0.312,0.362-0.497,0.82-0.548,1.364
			h3.365C242.264,70.958,241.996,70.374,241.459,70.083z"/>
	</g>
</g>
</svg>
