<?xml version="1.0" encoding="utf-8"?>
<!-- Generator: Adobe Illustrator 16.0.0, SVG Export Plug-In . SVG Version: 6.00 Build 0)  -->
<!DOCTYPE svg PUBLIC "-//W3C//DTD SVG 1.1//EN" "http://www.w3.org/Graphics/SVG/1.1/DTD/svg11.dtd">
<svg version="1.1" id="Layer_1" xmlns="http://www.w3.org/2000/svg" xmlns:xlink="http://www.w3.org/1999/xlink" x="0px" y="0px"
	 width="320px" height="95px" viewBox="0 0 320 95" enable-background="new 0 0 320 95" xml:space="preserve">
<g>
	<g>
		<path fill="#FBB040" d="M129.488,40.72c1.704,2.409,4.524,4.113,7.638,4.113c3.878,0,7.697-3.055,7.697-7.461
			c0-4.289-3.526-7.521-8.108-7.521c-1.646,0-3.408,0.412-4.936,1.175v-4.701l7.697-9.106h-13.75v-7.052h24.971v4.701l-7.461,9.166
			c5.641,2.174,9.518,7.109,9.518,13.337c0,8.695-6.816,14.513-15.335,14.513c-5.112,0-9.988-2.292-13.631-6.404L129.488,40.72z"/>
	</g>
	<g>
		<path fill="#2E3192" d="M117.037,57.33c-2.254,1.955-5.183,3.152-8.401,3.152c-7.106,0-12.868-5.762-12.868-12.867
			c0-7.107,5.762-12.868,12.868-12.868c2.648,0,5.1,0.809,7.144,2.182l1.764-2.253c-2.533-1.755-5.599-2.788-8.908-2.788
			c-8.671,0-15.727,7.054-15.727,15.727c0,8.671,7.055,15.726,15.727,15.726c3.908,0,7.469-1.453,10.221-3.823L117.037,57.33z"/>
		<path fill="#2E3192" d="M124.863,66.734c-4.378,3.724-10.042,5.979-16.227,5.979c-13.839,0-25.098-11.26-25.098-25.098
			c0-13.841,11.259-25.099,25.098-25.099c5.485,0,10.558,1.776,14.691,4.773l1.771-2.264c-4.618-3.371-10.306-5.369-16.462-5.369
			c-15.44,0-27.958,12.517-27.958,27.958c0,15.44,12.518,27.957,27.958,27.957c6.889,0,13.195-2.491,18.069-6.624L124.863,66.734z"
			/>
		<path fill="#2E3192" d="M120.984,62.074c-3.327,2.848-7.636,4.576-12.349,4.576C98.14,66.65,89.6,58.11,89.6,47.615
			c0-10.497,8.54-19.036,19.036-19.036c4.078,0,7.848,1.299,10.945,3.495l1.771-2.262c-3.587-2.571-7.975-4.093-12.715-4.093
			c-12.073,0-21.895,9.821-21.895,21.896c0,12.071,9.822,21.895,21.895,21.895c5.407,0,10.354-1.979,14.176-5.238L120.984,62.074z"
			/>
	</g>
	<rect x="20.364" y="20.045" fill="#FBB040" width="12.158" height="54.844"/>
	<polygon fill="#2E3192" points="33.063,20.045 20.364,20.045 41.037,69.961 53.458,69.961 	"/>
	<polygon fill="#FBB040" points="61.648,20.045 74.076,20.045 53.458,69.961 41.037,69.961 	"/>
	<rect x="61.919" y="20.045" fill="#2E3192" width="12.157" height="54.844"/>
</g>
<g>
	<g>
		<path fill="#2E3192" d="M211.906,19.269l2.445,4.914l2.422-4.914h1.28v7.255h-0.911v-5.963l-2.491,5.052h-0.611l-2.526-5.133
			v6.044h-0.911v-7.255H211.906z"/>
		<path fill="#2E3192" d="M222.287,25.913c0.761,0,1.195-0.334,1.304-1.003h0.934c-0.084,0.554-0.328,0.982-0.732,1.286
			c-0.403,0.304-0.905,0.456-1.505,0.456c-0.738,0-1.338-0.263-1.8-0.79c-0.461-0.527-0.691-1.229-0.691-2.105
			c0-0.876,0.232-1.576,0.697-2.099c0.466-0.523,1.084-0.784,1.857-0.784c0.772,0,1.35,0.3,1.73,0.899
			c0.38,0.6,0.513,1.331,0.397,2.192h-3.771c0,0.569,0.138,1.036,0.415,1.401C221.398,25.73,221.787,25.913,222.287,25.913z
			 M222.956,21.737c-0.177-0.092-0.393-0.138-0.646-0.138c-0.47,0-0.841,0.16-1.113,0.479c-0.273,0.319-0.433,0.717-0.479,1.194
			h2.94C223.659,22.503,223.425,21.991,222.956,21.737z"/>
		<path fill="#2E3192" d="M229.935,21.83v-3.16h0.899v7.855h-0.738l-0.115-0.923c-0.177,0.346-0.411,0.607-0.703,0.785
			c-0.293,0.177-0.611,0.265-0.958,0.265c-0.699,0-1.286-0.269-1.759-0.808c-0.473-0.538-0.709-1.24-0.709-2.105
			s0.232-1.559,0.697-2.082c0.466-0.523,1.054-0.784,1.765-0.784C229.025,20.873,229.565,21.191,229.935,21.83z M228.366,21.68
			c-0.446,0-0.821,0.188-1.125,0.565s-0.456,0.88-0.456,1.511c0,0.631,0.154,1.136,0.462,1.517c0.308,0.38,0.677,0.571,1.107,0.571
			s0.798-0.144,1.102-0.433c0.304-0.288,0.463-0.675,0.479-1.159v-0.899c0-0.515-0.15-0.923-0.45-1.223
			C229.185,21.83,228.812,21.68,228.366,21.68z"/>
		<path fill="#2E3192" d="M233.684,19.708c-0.185,0-0.329-0.052-0.433-0.156c-0.104-0.104-0.156-0.242-0.156-0.416
			c0-0.173,0.052-0.312,0.156-0.415c0.104-0.104,0.248-0.156,0.433-0.156s0.332,0.052,0.443,0.156
			c0.111,0.104,0.168,0.242,0.168,0.415c0,0.173-0.057,0.312-0.168,0.416C234.016,19.655,233.868,19.708,233.684,19.708z
			 M233.233,20.999h0.911v5.525h-0.911V20.999z"/>
		<path fill="#2E3192" d="M239.509,26.363c-0.661,0.308-1.266,0.373-1.812,0.196c-0.392-0.123-0.669-0.381-0.83-0.773
			c-0.085-0.192-0.127-0.423-0.127-0.692v-3.392h-0.888v-0.692h0.888v-1.534h0.899v1.534h1.73v0.692h-1.73v3.38
			c0,0.562,0.262,0.842,0.785,0.842c0.284,0,0.604-0.069,0.957-0.208L239.509,26.363z"/>
		<path fill="#2E3192" d="M242.865,25.913c0.761,0,1.195-0.334,1.304-1.003h0.934c-0.084,0.554-0.328,0.982-0.732,1.286
			c-0.403,0.304-0.905,0.456-1.505,0.456c-0.738,0-1.338-0.263-1.8-0.79c-0.461-0.527-0.691-1.229-0.691-2.105
			c0-0.876,0.232-1.576,0.697-2.099c0.466-0.523,1.084-0.784,1.857-0.784c0.772,0,1.35,0.3,1.73,0.899
			c0.38,0.6,0.513,1.331,0.397,2.192h-3.771c0,0.569,0.138,1.036,0.415,1.401C241.977,25.73,242.365,25.913,242.865,25.913z
			 M243.534,21.737c-0.177-0.092-0.393-0.138-0.646-0.138c-0.47,0-0.841,0.16-1.113,0.479c-0.273,0.319-0.433,0.717-0.479,1.194
			h2.94C244.237,22.503,244.003,21.991,243.534,21.737z"/>
		<path fill="#2E3192" d="M249.151,21.784c-0.869,0-1.318,0.685-1.35,2.053v2.688h-0.911v-5.525h0.911v1.062
			c0.277-0.769,0.766-1.154,1.465-1.154c0.224,0,0.435,0.035,0.635,0.104l-0.046,0.888C249.625,21.822,249.39,21.784,249.151,21.784
			z"/>
		<path fill="#2E3192" d="M253.546,21.784c-0.869,0-1.318,0.685-1.35,2.053v2.688h-0.911v-5.525h0.911v1.062
			c0.277-0.769,0.766-1.154,1.465-1.154c0.224,0,0.435,0.035,0.635,0.104l-0.046,0.888C254.02,21.822,253.784,21.784,253.546,21.784
			z"/>
		<path fill="#2E3192" d="M259.105,22.949c0-0.5-0.104-0.857-0.312-1.073c-0.207-0.215-0.509-0.323-0.905-0.323
			s-0.715,0.079-0.957,0.237s-0.363,0.406-0.363,0.744h-1.004c0-0.846,0.454-1.369,1.361-1.568c0.276-0.062,0.576-0.092,0.899-0.092
			c0.685,0,1.219,0.173,1.604,0.519c0.385,0.346,0.577,0.873,0.577,1.58v3.553h-0.785l-0.092-0.923c-0.339,0.7-0.95,1.05-1.834,1.05
			c-0.593,0-1.067-0.166-1.425-0.496s-0.536-0.742-0.536-1.234c0-0.492,0.197-0.876,0.594-1.153s0.89-0.415,1.482-0.415
			c0.592,0,1.157,0.1,1.695,0.3V22.949z M259.105,24.229c-0.546-0.154-1.022-0.231-1.43-0.231c-0.408,0-0.738,0.073-0.992,0.219
			c-0.254,0.146-0.381,0.377-0.381,0.692c0,0.692,0.393,1.038,1.177,1.038c0.445,0,0.828-0.16,1.147-0.479
			C258.946,25.15,259.105,24.736,259.105,24.229z"/>
		<path fill="#2E3192" d="M263.028,22.072c0.361-0.799,0.98-1.199,1.856-1.199c0.654,0,1.163,0.215,1.528,0.646
			c0.365,0.431,0.548,1.019,0.548,1.765v3.241h-0.899v-3.241c0-0.531-0.125-0.931-0.375-1.2s-0.605-0.404-1.066-0.404
			c-0.462,0-0.835,0.188-1.119,0.565s-0.435,0.899-0.45,1.569v2.71h-0.911v-5.514h0.784L263.028,22.072z"/>
		<path fill="#2E3192" d="M271.01,25.913c0.761,0,1.195-0.334,1.304-1.003h0.934c-0.084,0.554-0.328,0.982-0.732,1.286
			c-0.403,0.304-0.905,0.456-1.505,0.456c-0.738,0-1.338-0.263-1.8-0.79c-0.461-0.527-0.691-1.229-0.691-2.105
			c0-0.876,0.232-1.576,0.697-2.099c0.466-0.523,1.084-0.784,1.857-0.784c0.772,0,1.35,0.3,1.73,0.899
			c0.38,0.6,0.513,1.331,0.397,2.192h-3.771c0,0.569,0.138,1.036,0.415,1.401C270.121,25.73,270.51,25.913,271.01,25.913z
			 M271.679,21.737c-0.177-0.092-0.393-0.138-0.646-0.138c-0.47,0-0.841,0.16-1.113,0.479c-0.273,0.319-0.433,0.717-0.479,1.194
			h2.94C272.382,22.503,272.147,21.991,271.679,21.737z"/>
		<path fill="#2E3192" d="M278.461,22.949c0-0.5-0.104-0.857-0.312-1.073c-0.207-0.215-0.509-0.323-0.905-0.323
			s-0.715,0.079-0.957,0.237s-0.363,0.406-0.363,0.744h-1.004c0-0.846,0.454-1.369,1.361-1.568c0.276-0.062,0.576-0.092,0.899-0.092
			c0.685,0,1.219,0.173,1.604,0.519c0.385,0.346,0.577,0.873,0.577,1.58v3.553h-0.785l-0.092-0.923c-0.339,0.7-0.95,1.05-1.834,1.05
			c-0.593,0-1.067-0.166-1.425-0.496s-0.536-0.742-0.536-1.234c0-0.492,0.197-0.876,0.594-1.153s0.89-0.415,1.482-0.415
			c0.592,0,1.157,0.1,1.695,0.3V22.949z M278.461,24.229c-0.546-0.154-1.022-0.231-1.43-0.231c-0.408,0-0.738,0.073-0.992,0.219
			c-0.254,0.146-0.381,0.377-0.381,0.692c0,0.692,0.393,1.038,1.177,1.038c0.445,0,0.828-0.16,1.147-0.479
			C278.302,25.15,278.461,24.736,278.461,24.229z"/>
		<path fill="#2E3192" d="M282.384,22.072c0.361-0.799,0.98-1.199,1.856-1.199c0.654,0,1.163,0.215,1.528,0.646
			c0.365,0.431,0.548,1.019,0.548,1.765v3.241h-0.899v-3.241c0-0.531-0.125-0.931-0.375-1.2s-0.605-0.404-1.066-0.404
			c-0.462,0-0.835,0.188-1.119,0.565s-0.435,0.899-0.45,1.569v2.71h-0.911v-5.514h0.784L282.384,22.072z"/>
	</g>
	<g>
		<path fill="#2E3192" d="M213.117,32.984c0.776,0,1.401,0.194,1.874,0.583c0.474,0.389,0.798,0.894,0.975,1.517l-0.98,0.196
			c-0.153-0.454-0.394-0.813-0.721-1.079c-0.327-0.265-0.709-0.398-1.147-0.398c-0.607,0-1.111,0.254-1.511,0.761
			c-0.4,0.508-0.601,1.213-0.601,2.117c0,0.904,0.179,1.628,0.537,2.174c0.357,0.546,0.882,0.819,1.574,0.819
			c0.576,0,1.032-0.152,1.367-0.456c0.334-0.303,0.501-0.705,0.501-1.205h0.98c0,0.761-0.259,1.365-0.778,1.811
			c-0.519,0.446-1.23,0.669-2.134,0.669s-1.634-0.346-2.191-1.038c-0.558-0.692-0.837-1.619-0.837-2.78s0.289-2.067,0.865-2.717
			C211.468,33.309,212.21,32.984,213.117,32.984z"/>
		<path fill="#2E3192" d="M218.181,33.549c-0.185,0-0.329-0.052-0.433-0.156c-0.104-0.104-0.156-0.242-0.156-0.416
			c0-0.173,0.052-0.312,0.156-0.415c0.104-0.104,0.248-0.156,0.433-0.156s0.332,0.052,0.443,0.156
			c0.111,0.104,0.168,0.242,0.168,0.415c0,0.173-0.057,0.312-0.168,0.416C218.513,33.497,218.365,33.549,218.181,33.549z
			 M217.73,34.841h0.911v5.525h-0.911V34.841z"/>
		<path fill="#2E3192" d="M224.006,40.205c-0.661,0.308-1.266,0.373-1.812,0.196c-0.392-0.123-0.669-0.381-0.83-0.773
			c-0.085-0.192-0.127-0.423-0.127-0.692v-3.392h-0.888v-0.692h0.888v-1.534h0.899v1.534h1.73v0.692h-1.73v3.38
			c0,0.562,0.262,0.842,0.785,0.842c0.284,0,0.604-0.069,0.957-0.208L224.006,40.205z"/>
		<path fill="#2E3192" d="M225.967,33.549c-0.185,0-0.329-0.052-0.433-0.156c-0.104-0.104-0.156-0.242-0.156-0.416
			c0-0.173,0.052-0.312,0.156-0.415c0.104-0.104,0.248-0.156,0.433-0.156s0.332,0.052,0.443,0.156
			c0.111,0.104,0.168,0.242,0.168,0.415c0,0.173-0.057,0.312-0.168,0.416C226.299,33.497,226.151,33.549,225.967,33.549z
			 M225.517,34.841h0.911v5.525h-0.911V34.841z"/>
		<path fill="#2E3192" d="M230.812,39.755c0.761,0,1.195-0.334,1.304-1.003h0.934c-0.084,0.554-0.328,0.982-0.732,1.286
			c-0.403,0.304-0.905,0.456-1.505,0.456c-0.738,0-1.338-0.263-1.8-0.79c-0.461-0.527-0.691-1.229-0.691-2.105
			c0-0.876,0.232-1.576,0.697-2.099c0.466-0.523,1.084-0.784,1.857-0.784c0.772,0,1.35,0.3,1.73,0.899
			c0.38,0.6,0.513,1.331,0.397,2.192h-3.771c0,0.569,0.138,1.036,0.415,1.401C229.923,39.572,230.312,39.755,230.812,39.755z
			 M231.48,35.579c-0.177-0.092-0.393-0.138-0.646-0.138c-0.47,0-0.841,0.16-1.113,0.479c-0.273,0.319-0.433,0.717-0.479,1.194h2.94
			C232.184,36.345,231.949,35.833,231.48,35.579z"/>
		<path fill="#2E3192" d="M235.143,35.118c0.389-0.269,0.913-0.403,1.574-0.403c0.662,0,1.179,0.138,1.552,0.415
			s0.567,0.627,0.583,1.05h-0.889c-0.069-0.5-0.492-0.75-1.269-0.75c-0.377,0-0.667,0.085-0.871,0.254
			c-0.204,0.169-0.306,0.352-0.306,0.548s0.077,0.361,0.23,0.496c0.154,0.135,0.4,0.252,0.738,0.352l1.107,0.369
			c0.469,0.146,0.829,0.333,1.079,0.56c0.249,0.227,0.374,0.539,0.374,0.935s-0.203,0.753-0.611,1.072
			c-0.407,0.319-0.977,0.479-1.707,0.479s-1.3-0.164-1.707-0.49s-0.623-0.748-0.646-1.263h0.876
			c0.016,0.346,0.156,0.605,0.422,0.779c0.265,0.173,0.598,0.259,0.997,0.259c0.4,0,0.73-0.084,0.992-0.254
			c0.262-0.169,0.393-0.371,0.393-0.605c0-0.234-0.077-0.413-0.231-0.536c-0.153-0.123-0.403-0.231-0.749-0.323l-1.073-0.357
			c-0.961-0.284-1.441-0.784-1.441-1.5C234.561,35.749,234.754,35.387,235.143,35.118z"/>
		<path fill="#2E3192" d="M247.075,36.791c0-0.5-0.104-0.857-0.312-1.073c-0.207-0.215-0.509-0.323-0.905-0.323
			s-0.715,0.079-0.957,0.237s-0.363,0.406-0.363,0.744h-1.004c0-0.846,0.454-1.369,1.361-1.568c0.276-0.062,0.576-0.092,0.899-0.092
			c0.685,0,1.219,0.173,1.604,0.519c0.385,0.346,0.577,0.873,0.577,1.58v3.553h-0.785l-0.092-0.923c-0.339,0.7-0.95,1.05-1.834,1.05
			c-0.593,0-1.067-0.166-1.425-0.496s-0.536-0.742-0.536-1.234c0-0.492,0.197-0.876,0.594-1.153s0.89-0.415,1.482-0.415
			c0.592,0,1.157,0.1,1.695,0.3V36.791z M247.075,38.071c-0.546-0.154-1.022-0.231-1.43-0.231c-0.408,0-0.738,0.073-0.992,0.219
			c-0.254,0.146-0.381,0.377-0.381,0.692c0,0.692,0.393,1.038,1.177,1.038c0.445,0,0.828-0.16,1.147-0.479
			C246.916,38.992,247.075,38.578,247.075,38.071z"/>
		<path fill="#2E3192" d="M250.997,35.914c0.361-0.799,0.98-1.199,1.856-1.199c0.654,0,1.163,0.215,1.528,0.646
			c0.365,0.431,0.548,1.019,0.548,1.765v3.241h-0.899v-3.241c0-0.531-0.125-0.931-0.375-1.2s-0.605-0.404-1.066-0.404
			c-0.462,0-0.835,0.188-1.119,0.565s-0.435,0.899-0.45,1.569v2.71h-0.911v-5.514h0.784L250.997,35.914z"/>
		<path fill="#2E3192" d="M260.686,35.671v-3.16h0.899v7.855h-0.738l-0.115-0.923c-0.177,0.346-0.411,0.607-0.703,0.785
			c-0.293,0.177-0.611,0.265-0.958,0.265c-0.699,0-1.286-0.269-1.759-0.808c-0.473-0.538-0.709-1.24-0.709-2.105
			s0.232-1.559,0.697-2.082c0.466-0.523,1.054-0.784,1.765-0.784C259.776,34.714,260.316,35.033,260.686,35.671z M259.117,35.521
			c-0.446,0-0.821,0.188-1.125,0.565s-0.456,0.88-0.456,1.511c0,0.631,0.154,1.136,0.462,1.517c0.308,0.38,0.677,0.571,1.107,0.571
			s0.798-0.144,1.102-0.433c0.304-0.288,0.463-0.675,0.479-1.159v-0.899c0-0.515-0.15-0.923-0.45-1.223
			C259.936,35.671,259.563,35.521,259.117,35.521z"/>
	</g>
	<g>
		<path fill="#2E3192" d="M213.117,46.825c0.776,0,1.401,0.194,1.874,0.583c0.474,0.389,0.798,0.894,0.975,1.517l-0.98,0.196
			c-0.153-0.453-0.394-0.813-0.721-1.079c-0.327-0.265-0.709-0.397-1.147-0.397c-0.607,0-1.111,0.254-1.511,0.762
			c-0.4,0.507-0.601,1.213-0.601,2.116c0,0.904,0.179,1.629,0.537,2.175c0.357,0.546,0.882,0.818,1.574,0.818
			c0.576,0,1.032-0.151,1.367-0.455c0.334-0.304,0.501-0.706,0.501-1.206h0.98c0,0.762-0.259,1.365-0.778,1.812
			c-0.519,0.446-1.23,0.669-2.134,0.669s-1.634-0.346-2.191-1.038s-0.837-1.619-0.837-2.78s0.289-2.066,0.865-2.716
			C211.468,47.15,212.21,46.825,213.117,46.825z"/>
		<path fill="#2E3192" d="M217.673,46.352h0.911v7.855h-0.911V46.352z"/>
		<path fill="#2E3192" d="M221.411,47.39c-0.185,0-0.329-0.052-0.433-0.156c-0.104-0.104-0.156-0.242-0.156-0.416
			c0-0.173,0.052-0.312,0.156-0.415c0.104-0.104,0.248-0.156,0.433-0.156s0.332,0.052,0.443,0.156
			c0.111,0.104,0.168,0.242,0.168,0.415c0,0.173-0.057,0.312-0.168,0.416C221.743,47.338,221.596,47.39,221.411,47.39z
			 M220.961,48.682h0.911v5.525h-0.911V48.682z"/>
		<path fill="#2E3192" d="M225.229,49.755c0.361-0.8,0.98-1.2,1.856-1.2c0.477,0,0.877,0.117,1.2,0.353
			c0.322,0.234,0.558,0.559,0.703,0.975c0.347-0.885,0.988-1.327,1.927-1.327c0.661,0,1.173,0.216,1.534,0.646
			s0.542,1.019,0.542,1.765v3.241h-0.899v-3.241c0-0.53-0.125-0.931-0.375-1.199c-0.25-0.27-0.609-0.404-1.079-0.404
			c-0.469,0-0.832,0.192-1.09,0.577s-0.387,0.915-0.387,1.592v2.676h-0.899v-3.241c0-0.53-0.125-0.931-0.375-1.199
			c-0.25-0.27-0.605-0.404-1.066-0.404c-0.462,0-0.835,0.188-1.119,0.565s-0.435,0.899-0.45,1.568v2.711h-0.911v-5.514h0.784
			L225.229,49.755z"/>
		<path fill="#2E3192" d="M238.551,50.631c0-0.499-0.104-0.857-0.312-1.072c-0.207-0.215-0.509-0.323-0.905-0.323
			s-0.715,0.079-0.957,0.236c-0.242,0.158-0.363,0.406-0.363,0.744h-1.004c0-0.846,0.454-1.368,1.361-1.568
			c0.276-0.062,0.576-0.093,0.899-0.093c0.685,0,1.219,0.173,1.604,0.52c0.385,0.346,0.577,0.873,0.577,1.58v3.553h-0.785
			l-0.092-0.923c-0.339,0.7-0.95,1.05-1.834,1.05c-0.593,0-1.067-0.165-1.425-0.496c-0.357-0.33-0.536-0.742-0.536-1.234
			s0.197-0.877,0.594-1.153s0.89-0.415,1.482-0.415c0.592,0,1.157,0.1,1.695,0.3V50.631z M238.551,51.911
			c-0.546-0.153-1.022-0.23-1.43-0.23c-0.408,0-0.738,0.073-0.992,0.22c-0.254,0.146-0.381,0.377-0.381,0.691
			c0,0.692,0.393,1.038,1.177,1.038c0.445,0,0.828-0.159,1.147-0.479C238.392,52.833,238.551,52.419,238.551,51.911z"/>
		<path fill="#2E3192" d="M244.48,54.046c-0.661,0.307-1.266,0.372-1.812,0.195c-0.392-0.122-0.669-0.38-0.83-0.772
			c-0.085-0.192-0.127-0.423-0.127-0.692v-3.391h-0.888v-0.692h0.888v-1.534h0.899v1.534h1.73v0.692h-1.73v3.38
			c0,0.561,0.262,0.842,0.785,0.842c0.284,0,0.604-0.069,0.957-0.208L244.48,54.046z"/>
		<path fill="#2E3192" d="M247.837,53.596c0.761,0,1.195-0.335,1.304-1.004h0.934c-0.084,0.554-0.328,0.982-0.732,1.286
			c-0.403,0.305-0.905,0.456-1.505,0.456c-0.738,0-1.338-0.264-1.8-0.79c-0.461-0.526-0.691-1.229-0.691-2.105
			c0-0.876,0.232-1.576,0.697-2.1c0.466-0.522,1.084-0.784,1.857-0.784c0.772,0,1.35,0.3,1.73,0.9c0.38,0.6,0.513,1.33,0.397,2.191
			h-3.771c0,0.569,0.138,1.036,0.415,1.401C246.948,53.413,247.337,53.596,247.837,53.596z M248.506,49.42
			c-0.177-0.092-0.393-0.139-0.646-0.139c-0.47,0-0.841,0.16-1.113,0.479c-0.273,0.318-0.433,0.717-0.479,1.193h2.94
			C249.209,50.186,248.975,49.674,248.506,49.42z"/>
	</g>
	<g>
		<path fill="#2E3192" d="M213.117,60.667c0.776,0,1.401,0.194,1.874,0.582c0.474,0.389,0.798,0.894,0.975,1.517l-0.98,0.196
			c-0.153-0.453-0.394-0.813-0.721-1.078c-0.327-0.266-0.709-0.398-1.147-0.398c-0.607,0-1.111,0.254-1.511,0.762
			c-0.4,0.507-0.601,1.213-0.601,2.116c0,0.904,0.179,1.629,0.537,2.175c0.357,0.546,0.882,0.818,1.574,0.818
			c0.576,0,1.032-0.151,1.367-0.455c0.334-0.304,0.501-0.706,0.501-1.206h0.98c0,0.762-0.259,1.365-0.778,1.812
			c-0.519,0.446-1.23,0.669-2.134,0.669s-1.634-0.346-2.191-1.038s-0.837-1.619-0.837-2.78s0.289-2.066,0.865-2.716
			C211.468,60.991,212.21,60.667,213.117,60.667z"/>
		<path fill="#2E3192" d="M218.584,63.55c0.369-0.769,0.98-1.153,1.834-1.153c0.653,0,1.163,0.216,1.528,0.646
			s0.548,1.019,0.548,1.765v3.241h-0.899v-3.241c0-0.53-0.125-0.931-0.375-1.199c-0.25-0.27-0.609-0.404-1.078-0.404
			c-0.47,0-0.847,0.198-1.131,0.594c-0.284,0.396-0.427,0.944-0.427,1.645v2.606h-0.911v-7.855h0.911V63.55z"/>
		<path fill="#2E3192" d="M228.055,64.473c0-0.499-0.104-0.857-0.312-1.072c-0.207-0.215-0.509-0.323-0.905-0.323
			s-0.715,0.079-0.957,0.236c-0.242,0.158-0.363,0.406-0.363,0.744h-1.004c0-0.846,0.454-1.368,1.361-1.568
			c0.276-0.062,0.576-0.093,0.899-0.093c0.685,0,1.219,0.173,1.604,0.52c0.385,0.346,0.577,0.873,0.577,1.58v3.553h-0.785
			l-0.092-0.923c-0.339,0.7-0.95,1.05-1.834,1.05c-0.593,0-1.067-0.165-1.425-0.496c-0.357-0.33-0.536-0.742-0.536-1.234
			s0.197-0.877,0.594-1.153s0.89-0.415,1.482-0.415c0.592,0,1.157,0.1,1.695,0.3V64.473z M228.055,65.753
			c-0.546-0.153-1.022-0.23-1.43-0.23c-0.408,0-0.738,0.073-0.992,0.22c-0.254,0.146-0.381,0.377-0.381,0.691
			c0,0.692,0.393,1.038,1.177,1.038c0.445,0,0.828-0.159,1.147-0.479C227.896,66.675,228.055,66.261,228.055,65.753z"/>
		<path fill="#2E3192" d="M231.977,63.597c0.361-0.8,0.98-1.2,1.856-1.2c0.654,0,1.163,0.216,1.528,0.646s0.548,1.019,0.548,1.765
			v3.241h-0.899v-3.241c0-0.53-0.125-0.931-0.375-1.199c-0.25-0.27-0.605-0.404-1.066-0.404c-0.462,0-0.835,0.188-1.119,0.565
			s-0.435,0.899-0.45,1.568v2.711h-0.911v-5.514h0.784L231.977,63.597z"/>
		<path fill="#2E3192" d="M238.285,67.876c-0.461-0.223-0.691-0.565-0.691-1.026c0-0.238,0.09-0.448,0.271-0.629
			s0.405-0.302,0.675-0.363c-0.415-0.369-0.623-0.854-0.623-1.453c0-0.601,0.214-1.085,0.641-1.454s0.932-0.554,1.517-0.554
			c0.584,0,1.08,0.139,1.488,0.416c0.054-0.408,0.217-0.734,0.49-0.98c0.272-0.246,0.632-0.369,1.078-0.369l-0.081,0.899
			c-0.677,0-1.03,0.284-1.061,0.854c0.269,0.331,0.403,0.727,0.403,1.188c0,0.592-0.213,1.078-0.64,1.459
			c-0.427,0.38-0.96,0.57-1.598,0.57c-0.438,0-0.827-0.088-1.165-0.265c-0.154,0.03-0.293,0.102-0.415,0.213
			c-0.124,0.111-0.185,0.264-0.185,0.456c0,0.407,0.338,0.611,1.015,0.611h2.146c0.515,0,0.923,0.109,1.223,0.328
			c0.3,0.22,0.45,0.525,0.45,0.917c0,0.585-0.295,1.097-0.883,1.534c-0.588,0.438-1.332,0.658-2.232,0.658
			c-0.899,0-1.606-0.168-2.122-0.502c-0.516-0.335-0.772-0.756-0.772-1.264c0-0.33,0.098-0.6,0.294-0.807
			C237.703,68.106,237.962,67.961,238.285,67.876z M238.112,69.087c0,0.292,0.159,0.544,0.479,0.756
			c0.319,0.211,0.804,0.317,1.453,0.317c0.65,0,1.192-0.141,1.627-0.422c0.435-0.28,0.651-0.609,0.651-0.985
			c0-0.178-0.063-0.329-0.19-0.456s-0.32-0.19-0.582-0.19h-2.227c-0.392,0.016-0.691,0.109-0.899,0.282
			C238.216,68.563,238.112,68.795,238.112,69.087z M241.504,64.398c0-0.396-0.12-0.72-0.358-0.97
			c-0.238-0.249-0.566-0.374-0.985-0.374c-0.42,0-0.748,0.125-0.986,0.374c-0.238,0.25-0.357,0.575-0.357,0.976
			c0,0.399,0.121,0.729,0.363,0.985c0.242,0.258,0.57,0.387,0.986,0.387c0.415,0,0.741-0.131,0.979-0.392
			C241.384,65.123,241.504,64.794,241.504,64.398z"/>
		<path fill="#2E3192" d="M246.476,67.438c0.761,0,1.195-0.335,1.304-1.004h0.934c-0.084,0.554-0.328,0.982-0.732,1.286
			c-0.403,0.305-0.905,0.456-1.505,0.456c-0.738,0-1.338-0.264-1.8-0.79c-0.461-0.526-0.691-1.229-0.691-2.105
			c0-0.876,0.232-1.576,0.697-2.1c0.466-0.522,1.084-0.784,1.857-0.784c0.772,0,1.35,0.3,1.73,0.9c0.38,0.6,0.513,1.33,0.397,2.191
			h-3.771c0,0.569,0.138,1.036,0.415,1.401C245.587,67.255,245.976,67.438,246.476,67.438z M247.145,63.262
			c-0.177-0.092-0.393-0.139-0.646-0.139c-0.47,0-0.841,0.16-1.113,0.479c-0.273,0.318-0.433,0.717-0.479,1.193h2.94
			C247.848,64.027,247.613,63.516,247.145,63.262z"/>
	</g>
</g>
<g>
</g>
<g>
</g>
<g>
</g>
<g>
</g>
<g>
</g>
<g>
</g>
<g>
</g>
<g>
</g>
<g>
</g>
<g>
</g>
<g>
</g>
<g>
</g>
<g>
</g>
<g>
</g>
<g>
</g>
</svg>
