<?xml version="1.0" encoding="utf-8"?>
<!-- Generator: Adobe Illustrator 16.0.0, SVG Export Plug-In . SVG Version: 6.00 Build 0)  -->
<!DOCTYPE svg PUBLIC "-//W3C//DTD SVG 1.1//EN" "http://www.w3.org/Graphics/SVG/1.1/DTD/svg11.dtd">
<svg version="1.1" id="Layer_1" xmlns="http://www.w3.org/2000/svg" xmlns:xlink="http://www.w3.org/1999/xlink" x="0px" y="0px"
	 width="320px" height="95px" viewBox="0 0 320 95" enable-background="new 0 0 320 95" xml:space="preserve">
<rect x="-7" y="-6" fill="#4345FF" width="332" height="104"/>
<g>
	<g>
		<path fill="#FBB040" d="M129.488,186.053c1.704,2.409,4.524,4.113,7.638,4.113c3.878,0,7.697-3.055,7.697-7.461
			c0-4.289-3.526-7.521-8.108-7.521c-1.646,0-3.408,0.412-4.936,1.176v-4.701l7.697-9.106h-13.75V155.5h24.971v4.701l-7.461,9.166
			c5.641,2.174,9.518,7.109,9.518,13.337c0,8.694-6.816,14.513-15.335,14.513c-5.112,0-9.988-2.292-13.631-6.404L129.488,186.053z"
			/>
	</g>
	<g>
		<path fill="#2E3192" d="M117.037,202.663c-2.254,1.955-5.183,3.151-8.401,3.151c-7.106,0-12.868-5.762-12.868-12.866
			c0-7.107,5.762-12.868,12.868-12.868c2.648,0,5.1,0.809,7.144,2.182l1.764-2.253c-2.533-1.755-5.599-2.788-8.908-2.788
			c-8.671,0-15.727,7.055-15.727,15.728c0,8.671,7.055,15.726,15.727,15.726c3.908,0,7.469-1.453,10.221-3.822L117.037,202.663z"/>
		<path fill="#2E3192" d="M124.863,212.066c-4.378,3.725-10.042,5.979-16.227,5.979c-13.839,0-25.098-11.26-25.098-25.098
			c0-13.841,11.259-25.099,25.098-25.099c5.485,0,10.558,1.775,14.691,4.772l1.771-2.265c-4.618-3.371-10.306-5.368-16.462-5.368
			c-15.44,0-27.958,12.517-27.958,27.958c0,15.439,12.518,27.957,27.958,27.957c6.889,0,13.195-2.491,18.069-6.625L124.863,212.066z
			"/>
		<path fill="#2E3192" d="M120.984,207.407c-3.327,2.848-7.636,4.575-12.349,4.575c-10.496,0-19.036-8.539-19.036-19.034
			c0-10.497,8.54-19.036,19.036-19.036c4.078,0,7.848,1.299,10.945,3.495l1.771-2.263c-3.587-2.57-7.975-4.093-12.715-4.093
			c-12.073,0-21.895,9.821-21.895,21.896c0,12.071,9.822,21.895,21.895,21.895c5.407,0,10.354-1.979,14.176-5.237L120.984,207.407z"
			/>
	</g>
	<rect x="20.364" y="165.378" fill="#FBB040" width="12.158" height="54.845"/>
	<polygon fill="#2E3192" points="33.063,165.378 20.364,165.378 41.037,215.294 53.458,215.294 	"/>
	<polygon fill="#FBB040" points="61.648,165.378 74.076,165.378 53.458,215.294 41.037,215.294 	"/>
	<rect x="61.919" y="165.378" fill="#2E3192" width="12.157" height="54.845"/>
</g>
<g>
	<g>
		<path fill="#2E3192" d="M211.906,164.602l2.445,4.914l2.422-4.914h1.279v7.256h-0.91v-5.963l-2.492,5.051h-0.61l-2.526-5.133
			v6.045h-0.91v-7.256H211.906L211.906,164.602z"/>
		<path fill="#2E3192" d="M222.287,171.246c0.761,0,1.195-0.334,1.304-1.003h0.935c-0.084,0.554-0.328,0.981-0.732,1.286
			c-0.402,0.304-0.904,0.455-1.505,0.455c-0.738,0-1.338-0.262-1.8-0.789c-0.461-0.527-0.691-1.229-0.691-2.105
			s0.232-1.576,0.697-2.099c0.466-0.523,1.084-0.784,1.857-0.784c0.771,0,1.35,0.3,1.729,0.898c0.38,0.601,0.513,1.332,0.397,2.192
			h-3.771c0,0.569,0.139,1.036,0.415,1.401C221.398,171.063,221.787,171.246,222.287,171.246z M222.956,167.07
			c-0.177-0.092-0.394-0.139-0.646-0.139c-0.471,0-0.842,0.16-1.113,0.479c-0.273,0.319-0.434,0.717-0.479,1.194h2.94
			C223.659,167.836,223.425,167.324,222.956,167.07z"/>
		<path fill="#2E3192" d="M229.936,167.163v-3.16h0.898v7.854h-0.738l-0.115-0.922c-0.176,0.346-0.41,0.606-0.703,0.784
			c-0.293,0.177-0.61,0.265-0.957,0.265c-0.699,0-1.286-0.269-1.76-0.808c-0.473-0.538-0.709-1.239-0.709-2.104
			s0.232-1.559,0.697-2.082c0.467-0.523,1.055-0.784,1.766-0.784S229.564,166.523,229.936,167.163z M228.366,167.014
			c-0.446,0-0.821,0.188-1.125,0.564s-0.456,0.88-0.456,1.511c0,0.632,0.154,1.136,0.462,1.517s0.677,0.571,1.106,0.571
			c0.431,0,0.799-0.144,1.103-0.433c0.304-0.288,0.463-0.676,0.479-1.159v-0.899c0-0.515-0.15-0.922-0.451-1.223
			C229.186,167.163,228.813,167.014,228.366,167.014z"/>
		<path fill="#2E3192" d="M233.684,165.041c-0.185,0-0.328-0.052-0.433-0.156c-0.104-0.104-0.155-0.242-0.155-0.416
			c0-0.173,0.051-0.312,0.155-0.414c0.104-0.104,0.248-0.156,0.433-0.156c0.186,0,0.332,0.052,0.443,0.156
			c0.111,0.104,0.168,0.241,0.168,0.414c0,0.174-0.057,0.313-0.168,0.416S233.868,165.041,233.684,165.041z M233.232,166.332h0.912
			v5.525h-0.912V166.332z"/>
		<path fill="#2E3192" d="M239.509,171.695c-0.661,0.309-1.266,0.373-1.812,0.197c-0.393-0.123-0.67-0.382-0.83-0.773
			c-0.085-0.192-0.127-0.424-0.127-0.692v-3.392h-0.889v-0.692h0.889v-1.534h0.898v1.534h1.73v0.692h-1.73v3.38
			c0,0.562,0.262,0.842,0.785,0.842c0.284,0,0.604-0.069,0.957-0.208L239.509,171.695z"/>
		<path fill="#2E3192" d="M242.865,171.246c0.761,0,1.195-0.334,1.304-1.003h0.935c-0.084,0.554-0.328,0.981-0.732,1.286
			c-0.403,0.304-0.905,0.455-1.505,0.455c-0.738,0-1.339-0.262-1.8-0.789s-0.691-1.229-0.691-2.105s0.232-1.576,0.697-2.099
			c0.466-0.523,1.084-0.784,1.857-0.784c0.771,0,1.35,0.3,1.729,0.898c0.38,0.601,0.513,1.332,0.397,2.192h-3.771
			c0,0.569,0.138,1.036,0.415,1.401C241.977,171.063,242.365,171.246,242.865,171.246z M243.534,167.07
			c-0.177-0.092-0.394-0.139-0.646-0.139c-0.471,0-0.842,0.16-1.113,0.479c-0.273,0.319-0.434,0.717-0.479,1.194h2.94
			C244.236,167.836,244.003,167.324,243.534,167.07z"/>
		<path fill="#2E3192" d="M249.15,167.117c-0.868,0-1.317,0.685-1.35,2.053v2.688h-0.91v-5.524h0.91v1.062
			c0.277-0.769,0.766-1.153,1.465-1.153c0.225,0,0.436,0.034,0.635,0.104l-0.045,0.887
			C249.625,167.154,249.391,167.117,249.15,167.117z"/>
		<path fill="#2E3192" d="M253.546,167.117c-0.869,0-1.317,0.685-1.351,2.053v2.688h-0.91v-5.524h0.91v1.062
			c0.277-0.769,0.767-1.153,1.466-1.153c0.224,0,0.435,0.034,0.635,0.104l-0.046,0.887
			C254.02,167.154,253.784,167.117,253.546,167.117z"/>
		<path fill="#2E3192" d="M259.105,168.282c0-0.5-0.104-0.857-0.313-1.073c-0.207-0.215-0.509-0.323-0.904-0.323
			c-0.396,0-0.716,0.079-0.957,0.237c-0.242,0.158-0.363,0.406-0.363,0.744h-1.004c0-0.846,0.453-1.369,1.36-1.568
			c0.276-0.063,0.576-0.092,0.899-0.092c0.685,0,1.219,0.173,1.604,0.52c0.385,0.346,0.577,0.873,0.577,1.58v3.553h-0.785
			l-0.092-0.924c-0.339,0.7-0.95,1.051-1.834,1.051c-0.593,0-1.067-0.166-1.425-0.496c-0.358-0.33-0.536-0.742-0.536-1.234
			s0.196-0.876,0.594-1.152c0.397-0.277,0.89-0.416,1.482-0.416c0.592,0,1.157,0.101,1.694,0.301v-0.706H259.105z M259.105,169.563
			c-0.547-0.154-1.022-0.231-1.431-0.231c-0.407,0-0.737,0.073-0.991,0.219s-0.382,0.377-0.382,0.692
			c0,0.691,0.394,1.037,1.177,1.037c0.445,0,0.828-0.159,1.147-0.479C258.945,170.482,259.105,170.068,259.105,169.563z"/>
		<path fill="#2E3192" d="M263.027,167.404c0.361-0.799,0.98-1.198,1.856-1.198c0.654,0,1.163,0.215,1.528,0.646
			c0.365,0.432,0.548,1.02,0.548,1.766v3.24h-0.899v-3.24c0-0.531-0.125-0.932-0.375-1.2s-0.604-0.403-1.065-0.403
			c-0.462,0-0.835,0.188-1.119,0.564s-0.435,0.898-0.45,1.568v2.711h-0.91v-5.515h0.783L263.027,167.404z"/>
		<path fill="#2E3192" d="M271.01,171.246c0.762,0,1.195-0.334,1.305-1.003h0.934c-0.084,0.554-0.328,0.981-0.732,1.286
			c-0.402,0.304-0.904,0.455-1.505,0.455c-0.737,0-1.338-0.262-1.8-0.789c-0.461-0.527-0.691-1.229-0.691-2.105
			s0.232-1.576,0.697-2.099c0.467-0.523,1.084-0.784,1.857-0.784c0.771,0,1.35,0.3,1.73,0.898c0.379,0.601,0.512,1.332,0.396,2.192
			h-3.771c0,0.569,0.139,1.036,0.416,1.401C270.121,171.063,270.51,171.246,271.01,171.246z M271.68,167.07
			c-0.178-0.092-0.394-0.139-0.646-0.139c-0.471,0-0.842,0.16-1.113,0.479c-0.273,0.319-0.434,0.717-0.479,1.194h2.939
			C272.382,167.836,272.146,167.324,271.68,167.07z"/>
		<path fill="#2E3192" d="M278.461,168.282c0-0.5-0.104-0.857-0.313-1.073c-0.207-0.215-0.508-0.323-0.904-0.323
			s-0.715,0.079-0.957,0.237s-0.363,0.406-0.363,0.744h-1.004c0-0.846,0.454-1.369,1.361-1.568c0.275-0.063,0.576-0.092,0.898-0.092
			c0.686,0,1.219,0.173,1.604,0.52c0.385,0.346,0.577,0.873,0.577,1.58v3.553h-0.785l-0.092-0.924c-0.34,0.7-0.95,1.051-1.834,1.051
			c-0.594,0-1.067-0.166-1.426-0.496c-0.357-0.33-0.535-0.742-0.535-1.234s0.196-0.876,0.594-1.152
			c0.396-0.277,0.89-0.416,1.482-0.416c0.592,0,1.156,0.101,1.694,0.301L278.461,168.282L278.461,168.282z M278.461,169.563
			c-0.546-0.154-1.021-0.231-1.43-0.231s-0.738,0.073-0.992,0.219s-0.381,0.377-0.381,0.692c0,0.691,0.393,1.037,1.177,1.037
			c0.444,0,0.828-0.159,1.147-0.479C278.302,170.482,278.461,170.068,278.461,169.563z"/>
		<path fill="#2E3192" d="M282.384,167.404c0.361-0.799,0.98-1.198,1.856-1.198c0.654,0,1.162,0.215,1.527,0.646
			c0.365,0.432,0.549,1.02,0.549,1.766v3.24h-0.899v-3.24c0-0.531-0.125-0.932-0.375-1.2s-0.604-0.403-1.065-0.403
			c-0.463,0-0.836,0.188-1.119,0.564c-0.284,0.377-0.436,0.898-0.45,1.568v2.711h-0.911v-5.515h0.783L282.384,167.404z"/>
	</g>
	<g>
		<path fill="#2E3192" d="M213.117,178.316c0.775,0,1.4,0.194,1.874,0.584c0.474,0.389,0.798,0.894,0.975,1.517l-0.979,0.196
			c-0.153-0.454-0.395-0.813-0.721-1.079c-0.328-0.265-0.709-0.398-1.147-0.398c-0.606,0-1.111,0.255-1.511,0.761
			c-0.4,0.508-0.602,1.213-0.602,2.117s0.18,1.629,0.537,2.174c0.357,0.547,0.882,0.819,1.574,0.819
			c0.576,0,1.031-0.151,1.367-0.456c0.334-0.303,0.5-0.705,0.5-1.205h0.98c0,0.762-0.259,1.365-0.777,1.812
			c-0.52,0.446-1.23,0.669-2.135,0.669s-1.634-0.346-2.191-1.038c-0.557-0.692-0.836-1.619-0.836-2.78
			c0-1.16,0.289-2.066,0.865-2.717C211.468,178.643,212.21,178.316,213.117,178.316z"/>
		<path fill="#2E3192" d="M218.182,178.882c-0.186,0-0.33-0.052-0.434-0.155c-0.104-0.104-0.156-0.242-0.156-0.416
			s0.053-0.313,0.156-0.416s0.248-0.155,0.434-0.155c0.185,0,0.332,0.052,0.442,0.155c0.11,0.104,0.168,0.242,0.168,0.416
			c0,0.172-0.058,0.312-0.168,0.416C218.514,178.83,218.365,178.882,218.182,178.882z M217.73,180.174h0.91v5.525h-0.91V180.174z"/>
		<path fill="#2E3192" d="M224.006,185.538c-0.66,0.308-1.266,0.373-1.813,0.196c-0.392-0.123-0.668-0.381-0.83-0.773
			c-0.084-0.191-0.127-0.423-0.127-0.691v-3.393h-0.887v-0.691h0.887v-1.535h0.9v1.535h1.729v0.691h-1.729v3.38
			c0,0.562,0.262,0.843,0.784,0.843c0.284,0,0.604-0.07,0.957-0.209L224.006,185.538z"/>
		<path fill="#2E3192" d="M225.967,178.882c-0.185,0-0.328-0.052-0.433-0.155c-0.104-0.104-0.156-0.242-0.156-0.416
			s0.052-0.313,0.156-0.416s0.248-0.155,0.433-0.155c0.186,0,0.332,0.052,0.443,0.155c0.111,0.104,0.168,0.242,0.168,0.416
			c0,0.172-0.057,0.312-0.168,0.416C226.299,178.83,226.15,178.882,225.967,178.882z M225.518,180.174h0.91v5.525h-0.91V180.174z"/>
		<path fill="#2E3192" d="M230.813,185.088c0.761,0,1.194-0.334,1.304-1.003h0.934c-0.084,0.554-0.327,0.981-0.731,1.286
			c-0.403,0.304-0.905,0.456-1.506,0.456c-0.737,0-1.338-0.263-1.799-0.79c-0.462-0.527-0.691-1.229-0.691-2.105
			c0-0.875,0.232-1.576,0.697-2.099s1.084-0.784,1.856-0.784s1.351,0.301,1.729,0.899c0.381,0.6,0.514,1.331,0.397,2.192h-3.771
			c0,0.568,0.138,1.035,0.414,1.4C229.923,184.904,230.313,185.088,230.813,185.088z M231.48,180.912
			c-0.178-0.092-0.394-0.139-0.646-0.139c-0.471,0-0.841,0.16-1.113,0.479s-0.433,0.718-0.479,1.194h2.939
			C232.184,181.678,231.949,181.166,231.48,180.912z"/>
		<path fill="#2E3192" d="M235.143,180.451c0.39-0.27,0.914-0.403,1.574-0.403c0.662,0,1.18,0.138,1.553,0.415
			s0.566,0.627,0.582,1.051h-0.889c-0.068-0.5-0.492-0.75-1.27-0.75c-0.377,0-0.666,0.084-0.87,0.254
			c-0.204,0.168-0.306,0.352-0.306,0.547c0,0.196,0.076,0.361,0.229,0.496s0.399,0.252,0.737,0.353l1.107,0.369
			c0.469,0.146,0.829,0.333,1.079,0.56c0.249,0.227,0.374,0.539,0.374,0.936c0,0.396-0.203,0.753-0.611,1.072
			c-0.406,0.318-0.977,0.479-1.707,0.479c-0.729,0-1.3-0.164-1.707-0.49c-0.406-0.326-0.623-0.748-0.646-1.263h0.876
			c0.016,0.346,0.156,0.604,0.422,0.778s0.598,0.26,0.997,0.26s0.729-0.084,0.992-0.254c0.262-0.17,0.394-0.371,0.394-0.605
			s-0.078-0.413-0.231-0.536c-0.153-0.122-0.403-0.231-0.749-0.323l-1.073-0.356c-0.961-0.284-1.44-0.784-1.44-1.5
			C234.561,181.082,234.754,180.721,235.143,180.451z"/>
		<path fill="#2E3192" d="M247.075,182.124c0-0.5-0.104-0.856-0.312-1.073c-0.207-0.215-0.51-0.322-0.906-0.322
			c-0.396,0-0.715,0.078-0.957,0.236c-0.241,0.158-0.362,0.406-0.362,0.744h-1.004c0-0.846,0.454-1.369,1.36-1.568
			c0.276-0.062,0.576-0.092,0.899-0.092c0.685,0,1.22,0.174,1.604,0.52s0.576,0.873,0.576,1.58v3.553h-0.785l-0.092-0.924
			c-0.339,0.701-0.949,1.051-1.834,1.051c-0.593,0-1.066-0.166-1.425-0.496s-0.536-0.742-0.536-1.234s0.197-0.875,0.594-1.152
			c0.397-0.277,0.891-0.415,1.482-0.415s1.157,0.1,1.695,0.3L247.075,182.124L247.075,182.124z M247.075,183.404
			c-0.546-0.154-1.022-0.231-1.431-0.231s-0.737,0.073-0.992,0.22c-0.254,0.146-0.381,0.377-0.381,0.691
			c0,0.691,0.394,1.038,1.178,1.038c0.445,0,0.828-0.16,1.146-0.479C246.916,184.325,247.075,183.911,247.075,183.404z"/>
		<path fill="#2E3192" d="M250.997,181.247c0.36-0.799,0.979-1.199,1.856-1.199c0.653,0,1.162,0.216,1.527,0.646
			c0.365,0.432,0.549,1.02,0.549,1.766v3.241h-0.9v-3.241c0-0.531-0.125-0.932-0.375-1.2s-0.604-0.403-1.065-0.403
			c-0.462,0-0.835,0.188-1.118,0.564c-0.285,0.377-0.436,0.898-0.451,1.568v2.711h-0.91v-5.514h0.783L250.997,181.247z"/>
		<path fill="#2E3192" d="M260.686,181.004v-3.16h0.899v7.855h-0.737l-0.115-0.924c-0.178,0.347-0.412,0.607-0.703,0.785
			c-0.293,0.178-0.611,0.266-0.959,0.266c-0.698,0-1.285-0.27-1.758-0.809c-0.474-0.537-0.709-1.24-0.709-2.104
			c0-0.865,0.231-1.56,0.696-2.082c0.466-0.522,1.054-0.784,1.765-0.784S260.316,180.366,260.686,181.004z M259.117,180.854
			c-0.446,0-0.821,0.188-1.125,0.565c-0.305,0.377-0.456,0.88-0.456,1.511s0.153,1.137,0.462,1.518
			c0.309,0.38,0.677,0.57,1.107,0.57c0.43,0,0.797-0.144,1.102-0.433c0.304-0.288,0.463-0.675,0.479-1.159v-0.898
			c0-0.516-0.149-0.924-0.449-1.223C259.936,181.004,259.563,180.854,259.117,180.854z"/>
	</g>
	<g>
		<path fill="#2E3192" d="M213.117,192.158c0.775,0,1.4,0.193,1.874,0.583c0.474,0.389,0.798,0.894,0.975,1.517l-0.979,0.196
			c-0.153-0.453-0.395-0.813-0.721-1.079c-0.328-0.266-0.709-0.396-1.147-0.396c-0.606,0-1.111,0.254-1.511,0.762
			c-0.4,0.507-0.602,1.213-0.602,2.115c0,0.904,0.18,1.629,0.537,2.176c0.357,0.546,0.882,0.818,1.574,0.818
			c0.576,0,1.031-0.151,1.367-0.455c0.334-0.305,0.5-0.707,0.5-1.207h0.98c0,0.763-0.259,1.365-0.777,1.813
			c-0.52,0.445-1.23,0.669-2.135,0.669s-1.634-0.346-2.191-1.038c-0.557-0.691-0.836-1.619-0.836-2.779
			c0-1.162,0.289-2.066,0.865-2.717C211.468,192.482,212.21,192.158,213.117,192.158z"/>
		<path fill="#2E3192" d="M217.673,191.686h0.911v7.854h-0.911V191.686z"/>
		<path fill="#2E3192" d="M221.411,192.723c-0.185,0-0.329-0.052-0.433-0.156c-0.104-0.104-0.156-0.241-0.156-0.416
			c0-0.172,0.052-0.312,0.156-0.414c0.104-0.104,0.248-0.156,0.433-0.156s0.332,0.052,0.442,0.156
			c0.111,0.104,0.168,0.242,0.168,0.414c0,0.174-0.057,0.313-0.168,0.416C221.743,192.671,221.596,192.723,221.411,192.723z
			 M220.961,194.016h0.911v5.524h-0.911V194.016z"/>
		<path fill="#2E3192" d="M225.229,195.088c0.361-0.8,0.98-1.199,1.856-1.199c0.478,0,0.877,0.116,1.2,0.353
			c0.322,0.233,0.558,0.559,0.703,0.975c0.347-0.885,0.988-1.327,1.927-1.327c0.661,0,1.173,0.217,1.534,0.646
			s0.542,1.02,0.542,1.765v3.241h-0.899V196.3c0-0.53-0.125-0.931-0.375-1.198c-0.25-0.271-0.609-0.404-1.078-0.404
			c-0.47,0-0.832,0.191-1.091,0.576c-0.258,0.386-0.387,0.916-0.387,1.593v2.676h-0.899v-3.241c0-0.529-0.125-0.931-0.375-1.199
			c-0.25-0.27-0.604-0.404-1.066-0.404c-0.461,0-0.834,0.188-1.118,0.566c-0.284,0.377-0.435,0.898-0.45,1.567v2.711h-0.911v-5.515
			h0.784L225.229,195.088z"/>
		<path fill="#2E3192" d="M238.551,195.964c0-0.499-0.104-0.856-0.313-1.071c-0.206-0.216-0.508-0.324-0.904-0.324
			s-0.715,0.08-0.957,0.236c-0.242,0.158-0.363,0.406-0.363,0.744h-1.004c0-0.846,0.454-1.367,1.361-1.568
			c0.275-0.062,0.576-0.092,0.898-0.092c0.686,0,1.219,0.172,1.604,0.52c0.385,0.346,0.577,0.873,0.577,1.58v3.553h-0.785
			l-0.092-0.923c-0.34,0.7-0.95,1.05-1.834,1.05c-0.594,0-1.067-0.165-1.426-0.496c-0.356-0.33-0.535-0.742-0.535-1.234
			s0.197-0.877,0.594-1.152c0.396-0.276,0.891-0.415,1.482-0.415s1.156,0.101,1.694,0.3L238.551,195.964L238.551,195.964z
			 M238.551,197.244c-0.546-0.153-1.021-0.23-1.43-0.23s-0.738,0.073-0.992,0.221c-0.254,0.146-0.381,0.377-0.381,0.69
			c0,0.692,0.393,1.038,1.177,1.038c0.445,0,0.828-0.158,1.147-0.479C238.393,198.166,238.551,197.752,238.551,197.244z"/>
		<path fill="#2E3192" d="M244.48,199.379c-0.662,0.307-1.267,0.372-1.813,0.195c-0.393-0.122-0.669-0.381-0.83-0.772
			c-0.085-0.192-0.127-0.423-0.127-0.692v-3.391h-0.888v-0.691h0.888v-1.534h0.898v1.534h1.73v0.691h-1.73v3.381
			c0,0.561,0.263,0.842,0.785,0.842c0.285,0,0.604-0.069,0.957-0.209L244.48,199.379z"/>
		<path fill="#2E3192" d="M247.837,198.93c0.761,0,1.195-0.336,1.304-1.005h0.935c-0.084,0.554-0.328,0.982-0.732,1.286
			c-0.403,0.305-0.905,0.456-1.505,0.456c-0.738,0-1.338-0.265-1.8-0.79c-0.461-0.525-0.69-1.229-0.69-2.105
			c0-0.875,0.231-1.576,0.696-2.1c0.466-0.521,1.084-0.783,1.856-0.783s1.351,0.299,1.73,0.899c0.381,0.601,0.514,1.33,0.396,2.19
			h-3.771c0,0.569,0.138,1.037,0.415,1.401C246.948,198.746,247.337,198.93,247.837,198.93z M248.506,194.753
			c-0.177-0.092-0.393-0.139-0.646-0.139c-0.469,0-0.84,0.159-1.112,0.479c-0.272,0.318-0.433,0.718-0.479,1.193h2.94
			C249.209,195.52,248.975,195.007,248.506,194.753z"/>
	</g>
	<g>
		<path fill="#2E3192" d="M213.117,206c0.775,0,1.4,0.193,1.874,0.582s0.798,0.895,0.975,1.518l-0.979,0.195
			c-0.153-0.453-0.395-0.813-0.721-1.078c-0.328-0.266-0.709-0.398-1.147-0.398c-0.606,0-1.111,0.255-1.511,0.763
			c-0.4,0.507-0.602,1.213-0.602,2.116c0,0.904,0.18,1.629,0.537,2.175s0.882,0.817,1.574,0.817c0.576,0,1.031-0.15,1.367-0.455
			c0.334-0.303,0.5-0.705,0.5-1.205h0.98c0,0.762-0.259,1.365-0.777,1.812c-0.52,0.446-1.23,0.669-2.135,0.669
			s-1.634-0.346-2.191-1.037c-0.557-0.693-0.836-1.619-0.836-2.781c0-1.16,0.289-2.065,0.865-2.715
			C211.468,206.324,212.21,206,213.117,206z"/>
		<path fill="#2E3192" d="M218.584,208.883c0.369-0.769,0.98-1.152,1.834-1.152c0.652,0,1.163,0.215,1.527,0.646
			c0.365,0.431,0.549,1.019,0.549,1.765v3.241h-0.898v-3.241c0-0.529-0.125-0.931-0.375-1.199c-0.25-0.27-0.609-0.403-1.078-0.403
			c-0.471,0-0.848,0.198-1.131,0.594c-0.285,0.396-0.428,0.944-0.428,1.646v2.605h-0.911v-7.855h0.911V208.883z"/>
		<path fill="#2E3192" d="M228.055,209.807c0-0.5-0.104-0.857-0.312-1.072c-0.207-0.215-0.509-0.323-0.905-0.323
			s-0.715,0.079-0.957,0.235c-0.242,0.158-0.363,0.406-0.363,0.744h-1.004c0-0.846,0.454-1.367,1.361-1.567
			c0.275-0.063,0.576-0.093,0.898-0.093c0.686,0,1.22,0.172,1.604,0.52c0.386,0.346,0.577,0.873,0.577,1.58v3.553h-0.785
			l-0.092-0.923c-0.34,0.7-0.95,1.05-1.834,1.05c-0.594,0-1.067-0.164-1.426-0.496c-0.356-0.33-0.535-0.742-0.535-1.234
			c0-0.491,0.197-0.877,0.594-1.152s0.891-0.415,1.482-0.415s1.156,0.101,1.695,0.3V209.807L228.055,209.807z M228.055,211.086
			c-0.546-0.152-1.021-0.23-1.43-0.23s-0.738,0.074-0.992,0.221s-0.381,0.377-0.381,0.691c0,0.691,0.393,1.037,1.178,1.037
			c0.444,0,0.827-0.158,1.146-0.479C227.896,212.008,228.055,211.594,228.055,211.086z"/>
		<path fill="#2E3192" d="M231.977,208.93c0.361-0.8,0.98-1.199,1.856-1.199c0.653,0,1.163,0.215,1.528,0.646
			s0.548,1.019,0.548,1.765v3.241h-0.899v-3.241c0-0.529-0.125-0.931-0.375-1.199c-0.25-0.27-0.605-0.403-1.066-0.403
			s-0.834,0.188-1.118,0.565s-0.435,0.898-0.45,1.567v2.711h-0.911v-5.514h0.784L231.977,208.93z"/>
		<path fill="#2E3192" d="M238.285,213.209c-0.461-0.223-0.691-0.564-0.691-1.025c0-0.238,0.09-0.449,0.271-0.629
			c0.181-0.182,0.404-0.303,0.675-0.363c-0.415-0.369-0.623-0.854-0.623-1.453c0-0.602,0.214-1.086,0.642-1.454
			c0.426-0.369,0.932-0.554,1.517-0.554c0.584,0,1.079,0.139,1.487,0.416c0.055-0.408,0.217-0.734,0.49-0.98
			c0.272-0.246,0.633-0.369,1.078-0.369l-0.081,0.898c-0.677,0-1.03,0.285-1.061,0.854c0.269,0.331,0.403,0.728,0.403,1.188
			c0,0.592-0.213,1.078-0.641,1.459c-0.427,0.38-0.96,0.57-1.598,0.57c-0.438,0-0.827-0.088-1.165-0.266
			c-0.154,0.03-0.294,0.102-0.415,0.213c-0.124,0.111-0.186,0.264-0.186,0.456c0,0.407,0.338,0.611,1.016,0.611h2.146
			c0.515,0,0.923,0.108,1.224,0.327c0.3,0.221,0.449,0.525,0.449,0.918c0,0.584-0.295,1.097-0.883,1.533
			c-0.588,0.438-1.332,0.658-2.232,0.658c-0.898,0-1.605-0.168-2.121-0.502c-0.516-0.335-0.772-0.756-0.772-1.264
			c0-0.33,0.099-0.6,0.294-0.807S237.962,213.294,238.285,213.209z M238.111,214.42c0,0.292,0.16,0.544,0.479,0.756
			c0.319,0.211,0.804,0.317,1.453,0.317s1.192-0.142,1.627-0.423c0.435-0.279,0.651-0.608,0.651-0.984
			c0-0.178-0.063-0.329-0.19-0.456s-0.319-0.19-0.582-0.19h-2.227c-0.392,0.017-0.691,0.109-0.899,0.283
			S238.111,214.128,238.111,214.42z M241.504,209.73c0-0.396-0.12-0.72-0.357-0.97c-0.238-0.249-0.566-0.374-0.985-0.374
			c-0.42,0-0.748,0.125-0.986,0.374c-0.237,0.25-0.356,0.575-0.356,0.976c0,0.399,0.121,0.729,0.363,0.986
			c0.241,0.258,0.569,0.387,0.985,0.387c0.415,0,0.741-0.131,0.979-0.393C241.384,210.456,241.504,210.127,241.504,209.73z"/>
		<path fill="#2E3192" d="M246.477,212.771c0.76,0,1.194-0.336,1.303-1.004h0.935c-0.084,0.553-0.327,0.981-0.731,1.285
			c-0.403,0.305-0.905,0.456-1.506,0.456c-0.738,0-1.338-0.264-1.8-0.79c-0.461-0.525-0.69-1.229-0.69-2.104
			s0.231-1.576,0.697-2.101c0.465-0.521,1.084-0.783,1.856-0.783s1.351,0.299,1.729,0.899c0.381,0.601,0.514,1.33,0.397,2.19h-3.771
			c0,0.57,0.138,1.037,0.414,1.402S245.977,212.771,246.477,212.771z M247.145,208.596c-0.177-0.093-0.393-0.14-0.646-0.14
			c-0.47,0-0.841,0.16-1.112,0.479c-0.273,0.317-0.434,0.717-0.479,1.192h2.94C247.848,209.359,247.613,208.85,247.145,208.596z"/>
	</g>
</g>
<g>
	<path fill="#FFFFFF" d="M129.488,41.053c1.704,2.409,4.524,4.113,7.638,4.113c3.878,0,7.697-3.055,7.697-7.461
		c0-4.289-3.526-7.521-8.108-7.521c-1.646,0-3.408,0.412-4.936,1.175v-4.701l7.697-9.106h-13.75V10.5h24.971v4.701l-7.461,9.166
		c5.641,2.174,9.518,7.109,9.518,13.337c0,8.695-6.816,14.513-15.335,14.513c-5.112,0-9.988-2.292-13.631-6.404L129.488,41.053z"/>
</g>
<g>
	<path fill="#FFDB16" d="M117.037,57.663c-2.254,1.955-5.183,3.151-8.401,3.151c-7.106,0-12.868-5.762-12.868-12.866
		c0-7.107,5.762-12.868,12.868-12.868c2.648,0,5.1,0.809,7.144,2.182l1.764-2.253c-2.533-1.755-5.599-2.788-8.908-2.788
		c-8.671,0-15.727,7.054-15.727,15.727c0,8.671,7.055,15.726,15.727,15.726c3.908,0,7.469-1.453,10.221-3.822L117.037,57.663z"/>
	<path fill="#FFDB16" d="M124.863,67.066c-4.378,3.725-10.042,5.979-16.227,5.979c-13.839,0-25.098-11.26-25.098-25.098
		c0-13.841,11.259-25.099,25.098-25.099c5.485,0,10.558,1.776,14.691,4.773l1.771-2.264c-4.618-3.371-10.306-5.369-16.462-5.369
		c-15.44,0-27.958,12.517-27.958,27.958c0,15.439,12.518,27.957,27.958,27.957c6.889,0,13.195-2.491,18.069-6.624L124.863,67.066z"
		/>
	<path fill="#FFDB16" d="M120.984,62.407c-3.327,2.848-7.636,4.575-12.349,4.575c-10.496,0-19.036-8.539-19.036-19.034
		c0-10.497,8.54-19.036,19.036-19.036c4.078,0,7.848,1.299,10.945,3.495l1.771-2.262c-3.587-2.571-7.975-4.093-12.715-4.093
		c-12.073,0-21.895,9.821-21.895,21.896c0,12.071,9.822,21.895,21.895,21.895c5.407,0,10.354-1.979,14.176-5.237L120.984,62.407z"/>
</g>
<rect x="20.364" y="20.378" fill="#FFFFFF" width="12.158" height="54.845"/>
<polygon fill="#FFDB16" points="33.063,20.378 20.364,20.378 41.037,70.294 53.458,70.294 "/>
<polygon fill="#FFFFFF" points="61.648,20.378 74.076,20.378 53.458,70.294 41.037,70.294 "/>
<rect x="61.919" y="20.378" fill="#FFDB16" width="12.157" height="54.845"/>
<g>
	<g>
		<path fill="#FFDB16" d="M211.906,19.602l2.445,4.914l2.422-4.914h1.279v7.255h-0.91v-5.963l-2.492,5.052h-0.61l-2.526-5.133v6.044
			h-0.91v-7.255H211.906z"/>
		<path fill="#FFDB16" d="M222.287,26.246c0.761,0,1.195-0.334,1.304-1.003h0.935c-0.084,0.554-0.328,0.982-0.732,1.286
			c-0.402,0.304-0.904,0.456-1.505,0.456c-0.738,0-1.338-0.263-1.8-0.79c-0.461-0.527-0.691-1.229-0.691-2.105
			s0.232-1.576,0.697-2.099c0.466-0.523,1.084-0.784,1.857-0.784c0.771,0,1.35,0.3,1.729,0.899c0.38,0.6,0.513,1.331,0.397,2.192
			h-3.771c0,0.569,0.139,1.036,0.415,1.401C221.398,26.063,221.787,26.246,222.287,26.246z M222.956,22.07
			c-0.177-0.092-0.394-0.138-0.646-0.138c-0.471,0-0.842,0.16-1.113,0.479c-0.273,0.319-0.434,0.717-0.479,1.194h2.94
			C223.659,22.836,223.425,22.324,222.956,22.07z"/>
		<path fill="#FFDB16" d="M229.936,22.163v-3.16h0.898v7.855h-0.738l-0.115-0.923c-0.176,0.346-0.41,0.607-0.703,0.785
			c-0.293,0.177-0.61,0.265-0.957,0.265c-0.699,0-1.286-0.269-1.76-0.808c-0.473-0.538-0.709-1.24-0.709-2.104
			c0-0.865,0.232-1.559,0.697-2.082c0.467-0.523,1.055-0.784,1.766-0.784S229.564,21.524,229.936,22.163z M228.366,22.013
			c-0.446,0-0.821,0.188-1.125,0.565s-0.456,0.88-0.456,1.511s0.154,1.136,0.462,1.517c0.308,0.38,0.677,0.571,1.106,0.571
			c0.431,0,0.799-0.144,1.103-0.433c0.304-0.288,0.463-0.675,0.479-1.159v-0.899c0-0.515-0.15-0.923-0.451-1.223
			C229.186,22.163,228.813,22.013,228.366,22.013z"/>
		<path fill="#FFDB16" d="M233.684,20.041c-0.185,0-0.328-0.052-0.433-0.156c-0.104-0.104-0.155-0.242-0.155-0.416
			c0-0.173,0.051-0.312,0.155-0.415c0.104-0.104,0.248-0.156,0.433-0.156c0.186,0,0.332,0.052,0.443,0.156s0.168,0.242,0.168,0.415
			c0,0.173-0.057,0.313-0.168,0.416C234.016,19.988,233.868,20.041,233.684,20.041z M233.232,21.332h0.912v5.525h-0.912V21.332z"/>
		<path fill="#FFDB16" d="M239.509,26.696c-0.661,0.308-1.266,0.373-1.812,0.196c-0.393-0.123-0.67-0.381-0.83-0.773
			c-0.085-0.192-0.127-0.423-0.127-0.692v-3.392h-0.889v-0.692h0.889V19.81h0.898v1.534h1.73v0.692h-1.73v3.38
			c0,0.562,0.262,0.842,0.785,0.842c0.284,0,0.604-0.069,0.957-0.208L239.509,26.696z"/>
		<path fill="#FFDB16" d="M242.865,26.246c0.761,0,1.195-0.334,1.304-1.003h0.935c-0.084,0.554-0.328,0.982-0.732,1.286
			c-0.403,0.304-0.905,0.456-1.505,0.456c-0.738,0-1.339-0.263-1.8-0.79c-0.461-0.527-0.691-1.229-0.691-2.105
			s0.232-1.576,0.697-2.099c0.466-0.523,1.084-0.784,1.857-0.784c0.771,0,1.35,0.3,1.729,0.899c0.38,0.6,0.513,1.331,0.397,2.192
			h-3.771c0,0.569,0.138,1.036,0.415,1.401C241.977,26.063,242.365,26.246,242.865,26.246z M243.534,22.07
			c-0.177-0.092-0.394-0.138-0.646-0.138c-0.471,0-0.842,0.16-1.113,0.479c-0.273,0.319-0.434,0.717-0.479,1.194h2.94
			C244.236,22.836,244.003,22.324,243.534,22.07z"/>
		<path fill="#FFDB16" d="M249.15,22.117c-0.868,0-1.317,0.685-1.35,2.053v2.688h-0.91v-5.525h0.91v1.062
			c0.277-0.769,0.766-1.154,1.465-1.154c0.225,0,0.436,0.035,0.635,0.104l-0.045,0.888C249.625,22.155,249.391,22.117,249.15,22.117
			z"/>
		<path fill="#FFDB16" d="M253.546,22.117c-0.869,0-1.317,0.685-1.351,2.053v2.688h-0.91v-5.525h0.91v1.062
			c0.277-0.769,0.767-1.154,1.466-1.154c0.224,0,0.435,0.035,0.635,0.104l-0.046,0.888C254.02,22.155,253.784,22.117,253.546,22.117
			z"/>
		<path fill="#FFDB16" d="M259.105,23.282c0-0.5-0.104-0.857-0.313-1.073c-0.207-0.215-0.509-0.323-0.904-0.323
			c-0.396,0-0.716,0.079-0.957,0.237c-0.242,0.158-0.363,0.406-0.363,0.744h-1.004c0-0.846,0.453-1.369,1.36-1.568
			c0.276-0.062,0.576-0.092,0.899-0.092c0.685,0,1.219,0.173,1.604,0.519s0.577,0.873,0.577,1.58v3.553h-0.785l-0.092-0.923
			c-0.339,0.7-0.95,1.05-1.834,1.05c-0.593,0-1.067-0.166-1.425-0.496c-0.358-0.33-0.536-0.742-0.536-1.234
			c0-0.492,0.196-0.876,0.594-1.153s0.89-0.415,1.482-0.415c0.592,0,1.157,0.1,1.694,0.3v-0.706H259.105z M259.105,24.562
			c-0.547-0.154-1.022-0.231-1.431-0.231c-0.407,0-0.737,0.073-0.991,0.219s-0.382,0.377-0.382,0.692
			c0,0.692,0.394,1.038,1.177,1.038c0.445,0,0.828-0.16,1.147-0.479C258.945,25.483,259.105,25.069,259.105,24.562z"/>
		<path fill="#FFDB16" d="M263.027,22.405c0.361-0.799,0.98-1.199,1.856-1.199c0.654,0,1.163,0.215,1.528,0.646
			s0.548,1.019,0.548,1.765v3.241h-0.899v-3.241c0-0.531-0.125-0.931-0.375-1.2s-0.604-0.404-1.065-0.404
			c-0.462,0-0.835,0.188-1.119,0.565s-0.435,0.899-0.45,1.569v2.71h-0.91v-5.514h0.783L263.027,22.405z"/>
		<path fill="#FFDB16" d="M271.01,26.246c0.762,0,1.195-0.334,1.305-1.003h0.934c-0.084,0.554-0.328,0.982-0.732,1.286
			c-0.402,0.304-0.904,0.456-1.505,0.456c-0.737,0-1.338-0.263-1.8-0.79c-0.461-0.527-0.691-1.229-0.691-2.105
			s0.232-1.576,0.697-2.099c0.467-0.523,1.084-0.784,1.857-0.784c0.771,0,1.35,0.3,1.73,0.899c0.379,0.6,0.512,1.331,0.396,2.192
			h-3.771c0,0.569,0.139,1.036,0.416,1.401C270.121,26.063,270.51,26.246,271.01,26.246z M271.68,22.07
			c-0.178-0.092-0.394-0.138-0.646-0.138c-0.471,0-0.842,0.16-1.113,0.479c-0.273,0.319-0.434,0.717-0.479,1.194h2.939
			C272.382,22.836,272.146,22.324,271.68,22.07z"/>
		<path fill="#FFDB16" d="M278.461,23.282c0-0.5-0.104-0.857-0.313-1.073c-0.207-0.215-0.508-0.323-0.904-0.323
			s-0.715,0.079-0.957,0.237s-0.363,0.406-0.363,0.744h-1.004c0-0.846,0.454-1.369,1.361-1.568c0.275-0.062,0.576-0.092,0.898-0.092
			c0.686,0,1.219,0.173,1.604,0.519c0.385,0.346,0.577,0.873,0.577,1.58v3.553h-0.785l-0.092-0.923c-0.34,0.7-0.95,1.05-1.834,1.05
			c-0.594,0-1.067-0.166-1.426-0.496c-0.357-0.33-0.535-0.742-0.535-1.234c0-0.492,0.196-0.876,0.594-1.153
			c0.396-0.277,0.89-0.415,1.482-0.415c0.592,0,1.156,0.1,1.694,0.3L278.461,23.282L278.461,23.282z M278.461,24.562
			c-0.546-0.154-1.021-0.231-1.43-0.231s-0.738,0.073-0.992,0.219s-0.381,0.377-0.381,0.692c0,0.692,0.393,1.038,1.177,1.038
			c0.444,0,0.828-0.16,1.147-0.479C278.302,25.483,278.461,25.069,278.461,24.562z"/>
		<path fill="#FFDB16" d="M282.384,22.405c0.361-0.799,0.98-1.199,1.856-1.199c0.654,0,1.162,0.215,1.527,0.646
			s0.549,1.019,0.549,1.765v3.241h-0.899v-3.241c0-0.531-0.125-0.931-0.375-1.2s-0.604-0.404-1.065-0.404
			c-0.463,0-0.836,0.188-1.119,0.565c-0.284,0.377-0.436,0.899-0.45,1.569v2.71h-0.911v-5.514h0.783L282.384,22.405z"/>
	</g>
	<g>
		<path fill="#FFDB16" d="M213.117,33.317c0.775,0,1.4,0.194,1.874,0.583s0.798,0.894,0.975,1.517l-0.979,0.196
			c-0.153-0.454-0.395-0.813-0.721-1.079c-0.328-0.265-0.709-0.398-1.147-0.398c-0.606,0-1.111,0.254-1.511,0.761
			c-0.4,0.508-0.602,1.213-0.602,2.117c0,0.904,0.18,1.628,0.537,2.174s0.882,0.819,1.574,0.819c0.576,0,1.031-0.152,1.367-0.456
			c0.334-0.303,0.5-0.705,0.5-1.205h0.98c0,0.761-0.259,1.365-0.777,1.811c-0.52,0.446-1.23,0.669-2.135,0.669
			s-1.634-0.346-2.191-1.038c-0.557-0.692-0.836-1.619-0.836-2.78c0-1.161,0.289-2.067,0.865-2.717
			C211.468,33.642,212.21,33.317,213.117,33.317z"/>
		<path fill="#FFDB16" d="M218.182,33.882c-0.186,0-0.33-0.052-0.434-0.156s-0.156-0.242-0.156-0.416
			c0-0.173,0.053-0.312,0.156-0.415c0.104-0.104,0.248-0.156,0.434-0.156c0.185,0,0.332,0.052,0.442,0.156s0.168,0.242,0.168,0.415
			s-0.058,0.312-0.168,0.416S218.365,33.882,218.182,33.882z M217.73,35.174h0.91v5.525h-0.91V35.174z"/>
		<path fill="#FFDB16" d="M224.006,40.538c-0.66,0.308-1.266,0.373-1.813,0.196c-0.392-0.123-0.668-0.381-0.83-0.773
			c-0.084-0.192-0.127-0.423-0.127-0.692v-3.392h-0.887v-0.692h0.887v-1.534h0.9v1.534h1.729v0.692h-1.729v3.38
			c0,0.562,0.262,0.842,0.784,0.842c0.284,0,0.604-0.069,0.957-0.208L224.006,40.538z"/>
		<path fill="#FFDB16" d="M225.967,33.882c-0.185,0-0.328-0.052-0.433-0.156s-0.156-0.242-0.156-0.416
			c0-0.173,0.052-0.312,0.156-0.415c0.104-0.104,0.248-0.156,0.433-0.156c0.186,0,0.332,0.052,0.443,0.156s0.168,0.242,0.168,0.415
			s-0.057,0.312-0.168,0.416S226.15,33.882,225.967,33.882z M225.518,35.174h0.91v5.525h-0.91V35.174z"/>
		<path fill="#FFDB16" d="M230.813,40.088c0.761,0,1.194-0.334,1.304-1.003h0.934c-0.084,0.554-0.327,0.982-0.731,1.286
			c-0.403,0.304-0.905,0.456-1.506,0.456c-0.737,0-1.338-0.263-1.799-0.79c-0.462-0.527-0.691-1.229-0.691-2.105
			s0.232-1.576,0.697-2.099s1.084-0.784,1.856-0.784s1.351,0.3,1.729,0.899c0.381,0.6,0.514,1.331,0.397,2.192h-3.771
			c0,0.569,0.138,1.036,0.414,1.401C229.923,39.905,230.313,40.088,230.813,40.088z M231.48,35.912
			c-0.178-0.092-0.394-0.138-0.646-0.138c-0.471,0-0.841,0.16-1.113,0.479c-0.272,0.319-0.433,0.717-0.479,1.194h2.939
			C232.184,36.678,231.949,36.166,231.48,35.912z"/>
		<path fill="#FFDB16" d="M235.143,35.451c0.39-0.269,0.914-0.403,1.574-0.403c0.662,0,1.18,0.138,1.553,0.415
			c0.373,0.277,0.566,0.627,0.582,1.05h-0.889c-0.068-0.5-0.492-0.75-1.27-0.75c-0.377,0-0.666,0.085-0.87,0.254
			s-0.306,0.352-0.306,0.548s0.076,0.361,0.229,0.496c0.153,0.135,0.399,0.252,0.737,0.352l1.107,0.369
			c0.469,0.146,0.829,0.333,1.079,0.56c0.249,0.227,0.374,0.539,0.374,0.935s-0.203,0.753-0.611,1.072
			c-0.406,0.319-0.977,0.479-1.707,0.479c-0.729,0-1.3-0.164-1.707-0.49c-0.406-0.326-0.623-0.748-0.646-1.263h0.876
			c0.016,0.346,0.156,0.605,0.422,0.779c0.266,0.173,0.598,0.259,0.997,0.259s0.729-0.084,0.992-0.254
			c0.262-0.169,0.394-0.371,0.394-0.605s-0.078-0.413-0.231-0.536s-0.403-0.231-0.749-0.323l-1.073-0.357
			c-0.961-0.284-1.44-0.784-1.44-1.5C234.561,36.082,234.754,35.72,235.143,35.451z"/>
		<path fill="#FFDB16" d="M247.075,37.124c0-0.5-0.104-0.857-0.312-1.073c-0.207-0.215-0.51-0.323-0.906-0.323
			c-0.396,0-0.715,0.079-0.957,0.237c-0.241,0.158-0.362,0.406-0.362,0.744h-1.004c0-0.846,0.454-1.369,1.36-1.568
			c0.276-0.062,0.576-0.092,0.899-0.092c0.685,0,1.22,0.173,1.604,0.519c0.385,0.346,0.576,0.873,0.576,1.58v3.553h-0.785
			l-0.092-0.923c-0.339,0.7-0.949,1.05-1.834,1.05c-0.593,0-1.066-0.166-1.425-0.496s-0.536-0.742-0.536-1.234
			c0-0.492,0.197-0.876,0.594-1.153c0.397-0.277,0.891-0.415,1.482-0.415s1.157,0.1,1.695,0.3L247.075,37.124L247.075,37.124z
			 M247.075,38.404c-0.546-0.154-1.022-0.231-1.431-0.231s-0.737,0.073-0.992,0.219c-0.254,0.146-0.381,0.377-0.381,0.692
			c0,0.692,0.394,1.038,1.178,1.038c0.445,0,0.828-0.16,1.146-0.479C246.916,39.325,247.075,38.911,247.075,38.404z"/>
		<path fill="#FFDB16" d="M250.997,36.247c0.36-0.799,0.979-1.199,1.856-1.199c0.653,0,1.162,0.215,1.527,0.646
			c0.365,0.431,0.549,1.019,0.549,1.765V40.7h-0.9v-3.241c0-0.531-0.125-0.931-0.375-1.2c-0.25-0.269-0.604-0.404-1.065-0.404
			c-0.462,0-0.835,0.188-1.118,0.565c-0.285,0.377-0.436,0.899-0.451,1.569v2.71h-0.91v-5.514h0.783L250.997,36.247z"/>
		<path fill="#FFDB16" d="M260.686,36.004v-3.16h0.899v7.855h-0.737l-0.115-0.923c-0.178,0.346-0.412,0.607-0.703,0.785
			c-0.293,0.177-0.611,0.265-0.959,0.265c-0.698,0-1.285-0.269-1.758-0.808c-0.474-0.538-0.709-1.24-0.709-2.105
			c0-0.865,0.231-1.559,0.696-2.082c0.466-0.523,1.054-0.784,1.765-0.784S260.316,35.366,260.686,36.004z M259.117,35.854
			c-0.446,0-0.821,0.188-1.125,0.565c-0.305,0.377-0.456,0.88-0.456,1.511c0,0.631,0.153,1.136,0.462,1.517
			c0.309,0.38,0.677,0.571,1.107,0.571c0.43,0,0.797-0.144,1.102-0.433c0.304-0.288,0.463-0.675,0.479-1.159v-0.899
			c0-0.515-0.149-0.923-0.449-1.223C259.936,36.004,259.563,35.854,259.117,35.854z"/>
	</g>
	<g>
		<path fill="#FFDB16" d="M213.117,47.158c0.775,0,1.4,0.194,1.874,0.583c0.474,0.389,0.798,0.894,0.975,1.517l-0.979,0.196
			c-0.153-0.453-0.395-0.813-0.721-1.079c-0.328-0.266-0.709-0.397-1.147-0.397c-0.606,0-1.111,0.254-1.511,0.762
			c-0.4,0.507-0.602,1.213-0.602,2.115c0,0.904,0.18,1.629,0.537,2.176c0.357,0.546,0.882,0.818,1.574,0.818
			c0.576,0,1.031-0.151,1.367-0.455c0.334-0.305,0.5-0.707,0.5-1.207h0.98c0,0.763-0.259,1.365-0.777,1.813
			c-0.52,0.445-1.23,0.669-2.135,0.669s-1.634-0.346-2.191-1.038c-0.557-0.691-0.836-1.619-0.836-2.779
			c0-1.162,0.289-2.066,0.865-2.717C211.468,47.483,212.21,47.158,213.117,47.158z"/>
		<path fill="#FFDB16" d="M217.673,46.685h0.911v7.855h-0.911V46.685z"/>
		<path fill="#FFDB16" d="M221.411,47.723c-0.185,0-0.329-0.052-0.433-0.156c-0.104-0.104-0.156-0.242-0.156-0.416
			c0-0.173,0.052-0.312,0.156-0.415c0.104-0.104,0.248-0.156,0.433-0.156s0.332,0.052,0.442,0.156
			c0.111,0.104,0.168,0.242,0.168,0.415c0,0.173-0.057,0.312-0.168,0.416C221.743,47.671,221.596,47.723,221.411,47.723z
			 M220.961,49.016h0.911v5.524h-0.911V49.016z"/>
		<path fill="#FFDB16" d="M225.229,50.088c0.361-0.8,0.98-1.199,1.856-1.199c0.478,0,0.877,0.116,1.2,0.353
			c0.322,0.233,0.558,0.559,0.703,0.975c0.347-0.885,0.988-1.327,1.927-1.327c0.661,0,1.173,0.217,1.534,0.646
			s0.542,1.02,0.542,1.765v3.241h-0.899V51.3c0-0.53-0.125-0.931-0.375-1.198c-0.25-0.271-0.609-0.404-1.078-0.404
			c-0.47,0-0.832,0.191-1.091,0.576c-0.258,0.386-0.387,0.916-0.387,1.593v2.676h-0.899v-3.241c0-0.529-0.125-0.931-0.375-1.199
			c-0.25-0.27-0.604-0.403-1.066-0.403c-0.461,0-0.834,0.188-1.118,0.565c-0.284,0.377-0.435,0.898-0.45,1.567v2.711h-0.911v-5.515
			h0.784L225.229,50.088z"/>
		<path fill="#FFDB16" d="M238.551,50.964c0-0.499-0.104-0.856-0.313-1.071c-0.206-0.216-0.508-0.324-0.904-0.324
			s-0.715,0.08-0.957,0.236c-0.242,0.158-0.363,0.406-0.363,0.744h-1.004c0-0.846,0.454-1.367,1.361-1.568
			c0.275-0.062,0.576-0.092,0.898-0.092c0.686,0,1.219,0.172,1.604,0.52c0.385,0.346,0.577,0.873,0.577,1.58v3.553h-0.785
			l-0.092-0.923c-0.34,0.7-0.95,1.05-1.834,1.05c-0.594,0-1.067-0.165-1.426-0.496c-0.356-0.33-0.535-0.742-0.535-1.234
			s0.197-0.877,0.594-1.152c0.396-0.276,0.891-0.415,1.482-0.415s1.156,0.1,1.694,0.3L238.551,50.964L238.551,50.964z
			 M238.551,52.244c-0.546-0.153-1.021-0.23-1.43-0.23s-0.738,0.073-0.992,0.221c-0.254,0.146-0.381,0.377-0.381,0.69
			c0,0.692,0.393,1.038,1.177,1.038c0.445,0,0.828-0.158,1.147-0.479C238.393,53.166,238.551,52.752,238.551,52.244z"/>
		<path fill="#FFDB16" d="M244.48,54.379c-0.662,0.307-1.267,0.372-1.813,0.195c-0.393-0.122-0.669-0.381-0.83-0.772
			c-0.085-0.192-0.127-0.423-0.127-0.692v-3.391h-0.888v-0.691h0.888v-1.534h0.898v1.534h1.73v0.691h-1.73V53.1
			c0,0.561,0.263,0.842,0.785,0.842c0.285,0,0.604-0.069,0.957-0.209L244.48,54.379z"/>
		<path fill="#FFDB16" d="M247.837,53.93c0.761,0,1.195-0.336,1.304-1.005h0.935c-0.084,0.554-0.328,0.982-0.732,1.286
			c-0.403,0.305-0.905,0.456-1.505,0.456c-0.738,0-1.338-0.265-1.8-0.79c-0.461-0.525-0.69-1.229-0.69-2.105
			c0-0.875,0.231-1.576,0.696-2.1c0.466-0.521,1.084-0.783,1.856-0.783s1.351,0.299,1.73,0.899c0.381,0.601,0.514,1.33,0.396,2.19
			h-3.771c0,0.569,0.138,1.037,0.415,1.401C246.948,53.746,247.337,53.93,247.837,53.93z M248.506,49.753
			c-0.177-0.092-0.393-0.139-0.646-0.139c-0.469,0-0.84,0.159-1.112,0.479c-0.272,0.318-0.433,0.718-0.479,1.193h2.94
			C249.209,50.52,248.975,50.007,248.506,49.753z"/>
	</g>
	<g>
		<path fill="#FFDB16" d="M213.117,61c0.775,0,1.4,0.193,1.874,0.582s0.798,0.895,0.975,1.518l-0.979,0.195
			c-0.153-0.453-0.395-0.813-0.721-1.078c-0.328-0.266-0.709-0.398-1.147-0.398c-0.606,0-1.111,0.255-1.511,0.763
			c-0.4,0.507-0.602,1.213-0.602,2.116c0,0.904,0.18,1.629,0.537,2.175s0.882,0.817,1.574,0.817c0.576,0,1.031-0.15,1.367-0.455
			c0.334-0.303,0.5-0.705,0.5-1.205h0.98c0,0.762-0.259,1.365-0.777,1.812c-0.52,0.446-1.23,0.669-2.135,0.669
			s-1.634-0.346-2.191-1.037c-0.557-0.693-0.836-1.619-0.836-2.781c0-1.16,0.289-2.065,0.865-2.715
			C211.468,61.324,212.21,61,213.117,61z"/>
		<path fill="#FFDB16" d="M218.584,63.883c0.369-0.769,0.98-1.152,1.834-1.152c0.652,0,1.163,0.215,1.527,0.646
			c0.365,0.431,0.549,1.019,0.549,1.765v3.241h-0.898v-3.241c0-0.529-0.125-0.931-0.375-1.199c-0.25-0.27-0.609-0.403-1.078-0.403
			c-0.471,0-0.848,0.198-1.131,0.594c-0.285,0.396-0.428,0.944-0.428,1.646v2.605h-0.911v-7.855h0.911V63.883z"/>
		<path fill="#FFDB16" d="M228.055,64.807c0-0.5-0.104-0.857-0.312-1.072c-0.207-0.215-0.509-0.323-0.905-0.323
			s-0.715,0.079-0.957,0.235c-0.242,0.158-0.363,0.406-0.363,0.744h-1.004c0-0.846,0.454-1.367,1.361-1.567
			c0.275-0.063,0.576-0.093,0.898-0.093c0.686,0,1.22,0.172,1.604,0.52c0.386,0.346,0.577,0.873,0.577,1.58v3.553h-0.785
			l-0.092-0.923c-0.34,0.7-0.95,1.05-1.834,1.05c-0.594,0-1.067-0.164-1.426-0.496c-0.356-0.33-0.535-0.742-0.535-1.233
			c0-0.492,0.197-0.878,0.594-1.153s0.891-0.415,1.482-0.415s1.156,0.101,1.695,0.3V64.807L228.055,64.807z M228.055,66.086
			c-0.546-0.152-1.021-0.23-1.43-0.23s-0.738,0.074-0.992,0.221s-0.381,0.377-0.381,0.691c0,0.691,0.393,1.037,1.178,1.037
			c0.444,0,0.827-0.158,1.146-0.479C227.896,67.008,228.055,66.594,228.055,66.086z"/>
		<path fill="#FFDB16" d="M231.977,63.93c0.361-0.8,0.98-1.199,1.856-1.199c0.653,0,1.163,0.215,1.528,0.646
			s0.548,1.019,0.548,1.765v3.241h-0.899v-3.241c0-0.529-0.125-0.931-0.375-1.199c-0.25-0.27-0.605-0.403-1.066-0.403
			s-0.834,0.188-1.118,0.565s-0.435,0.898-0.45,1.567v2.711h-0.911v-5.514h0.784L231.977,63.93z"/>
		<path fill="#FFDB16" d="M238.285,68.209c-0.461-0.223-0.691-0.564-0.691-1.025c0-0.238,0.09-0.449,0.271-0.629
			c0.181-0.182,0.404-0.303,0.675-0.363c-0.415-0.369-0.623-0.854-0.623-1.453c0-0.602,0.214-1.086,0.642-1.454
			c0.426-0.369,0.932-0.554,1.517-0.554c0.584,0,1.079,0.139,1.487,0.416c0.055-0.408,0.217-0.734,0.49-0.98
			c0.272-0.246,0.633-0.369,1.078-0.369l-0.081,0.898c-0.677,0-1.03,0.285-1.061,0.854c0.269,0.331,0.403,0.728,0.403,1.188
			c0,0.592-0.213,1.078-0.641,1.459c-0.427,0.38-0.96,0.57-1.598,0.57c-0.438,0-0.827-0.088-1.165-0.266
			c-0.154,0.03-0.294,0.102-0.415,0.213c-0.124,0.111-0.186,0.264-0.186,0.456c0,0.407,0.338,0.611,1.016,0.611h2.146
			c0.515,0,0.923,0.108,1.224,0.327c0.3,0.221,0.449,0.525,0.449,0.918c0,0.584-0.295,1.097-0.883,1.533
			c-0.588,0.438-1.332,0.658-2.232,0.658c-0.898,0-1.605-0.168-2.121-0.502c-0.516-0.335-0.772-0.756-0.772-1.264
			c0-0.33,0.099-0.6,0.294-0.807S237.962,68.294,238.285,68.209z M238.111,69.42c0,0.292,0.16,0.544,0.479,0.756
			c0.319,0.211,0.804,0.317,1.453,0.317s1.192-0.142,1.627-0.423c0.435-0.279,0.651-0.608,0.651-0.984
			c0-0.178-0.063-0.329-0.19-0.456s-0.319-0.19-0.582-0.19h-2.227c-0.392,0.017-0.691,0.109-0.899,0.283
			S238.111,69.128,238.111,69.42z M241.504,64.73c0-0.396-0.12-0.72-0.357-0.97c-0.238-0.249-0.566-0.374-0.985-0.374
			c-0.42,0-0.748,0.125-0.986,0.374c-0.237,0.25-0.356,0.575-0.356,0.976c0,0.399,0.121,0.729,0.363,0.986
			c0.241,0.258,0.569,0.387,0.985,0.387c0.415,0,0.741-0.131,0.979-0.393C241.384,65.456,241.504,65.127,241.504,64.73z"/>
		<path fill="#FFDB16" d="M246.477,67.771c0.76,0,1.194-0.336,1.303-1.004h0.935c-0.084,0.553-0.327,0.981-0.731,1.285
			c-0.403,0.305-0.905,0.456-1.506,0.456c-0.738,0-1.338-0.264-1.8-0.79c-0.461-0.525-0.69-1.229-0.69-2.104
			s0.231-1.576,0.697-2.101c0.465-0.521,1.084-0.783,1.856-0.783s1.351,0.3,1.729,0.899c0.381,0.601,0.514,1.33,0.397,2.19h-3.771
			c0,0.57,0.138,1.037,0.414,1.402S245.977,67.771,246.477,67.771z M247.145,63.595c-0.177-0.092-0.393-0.139-0.646-0.139
			c-0.47,0-0.841,0.16-1.112,0.479c-0.273,0.317-0.434,0.717-0.479,1.192h2.94C247.848,64.359,247.613,63.85,247.145,63.595z"/>
	</g>
</g>
</svg>
